<svg width="163" height="30" viewBox="0 0 163 30" fill="none" xmlns="http://www.w3.org/2000/svg">
<g clip-path="url(#clip0_76_81)">
<path d="M67.96 15.6605H39.51V13.3505H51.67V11.4505H43.64C43.29 11.4505 42.96 11.3905 42.65 11.2705C42.34 11.1505 42.07 10.9905 41.84 10.7905C41.61 10.5905 41.43 10.3405 41.3 10.0605C41.17 9.77051 41.11 9.48051 41.11 9.16051V4.16051H66.38V6.33051H44.9V9.28051H66.36V11.4505H55.8V13.3505H67.96V15.6605ZM40.94 22.1905C40.94 21.4305 41.27 20.7205 41.94 20.0505C42.61 19.3805 43.52 18.8005 44.68 18.3105C45.83 17.8105 47.19 17.4205 48.75 17.1205C50.31 16.8305 51.97 16.6805 53.73 16.6805C55.49 16.6805 57.16 16.8205 58.71 17.1205C60.27 17.4105 61.63 17.8105 62.79 18.3105C63.94 18.8005 64.86 19.3905 65.53 20.0505C66.2 20.7205 66.53 21.4305 66.53 22.1905C66.53 22.9605 66.2 23.6805 65.53 24.3505C64.86 25.0205 63.95 25.6005 62.79 26.0905C61.63 26.5905 60.27 26.9805 58.71 27.2605C57.15 27.5405 55.49 27.6905 53.73 27.6905C51.97 27.6905 50.31 27.5505 48.75 27.2605C47.19 26.9805 45.83 26.5805 44.68 26.0905C43.52 25.5905 42.6 25.0105 41.94 24.3505C41.27 23.6805 40.94 22.9605 40.94 22.1905ZM62.54 22.1305C62.54 21.6705 62.31 21.2305 61.85 20.8205C61.39 20.4105 60.76 20.0505 59.97 19.7305C59.17 19.4205 58.24 19.1805 57.16 19.0005C56.09 18.8305 54.95 18.7405 53.73 18.7405C52.52 18.7405 51.38 18.8305 50.31 19.0005C49.24 19.1705 48.3 19.4205 47.5 19.7305C46.7 20.0405 46.08 20.4105 45.62 20.8205C45.16 21.2305 44.93 21.6705 44.93 22.1305C44.93 22.6105 45.16 23.0505 45.62 23.4505C46.08 23.8505 46.7 24.2105 47.5 24.5205C48.3 24.8305 49.24 25.0705 50.31 25.2505C51.38 25.4205 52.53 25.5105 53.73 25.5105C54.94 25.5105 56.09 25.4205 57.16 25.2505C58.24 25.0805 59.17 24.8305 59.97 24.5205C60.77 24.2105 61.4 23.8505 61.85 23.4505C62.31 23.0505 62.54 22.6105 62.54 22.1305ZM80.43 3.52051C81.72 3.52051 82.92 3.81051 84.06 4.40051C85.2 5.00051 86.19 5.80051 87.03 6.81051C87.87 7.83051 88.54 9.03051 89.03 10.4105C89.51 11.7905 89.75 13.2505 89.75 14.8105C89.75 16.3705 89.51 17.8305 89.03 19.2105C88.54 20.5905 87.87 21.7805 87.03 22.8005C86.18 23.8205 85.2 24.6205 84.06 25.2105C82.92 25.8005 81.71 26.0905 80.43 26.0905C79.14 26.0905 77.94 25.8005 76.8 25.2105C75.66 24.6305 74.67 23.8205 73.83 22.8005C72.99 21.7805 72.33 20.5905 71.83 19.2105C71.34 17.8305 71.1 16.3705 71.1 14.8105C71.1 13.2505 71.34 11.7805 71.83 10.4105C72.32 9.03051 72.98 7.83051 73.83 6.81051C74.67 5.80051 75.65 5.00051 76.8 4.41051C77.93 3.82051 79.14 3.52051 80.43 3.52051ZM80.43 23.8105C81.2 23.8105 81.93 23.5805 82.61 23.1105C83.29 22.6405 83.87 22.0005 84.37 21.1905C84.87 20.3705 85.26 19.4105 85.55 18.3205C85.84 17.2305 85.99 16.0605 85.99 14.8105C85.99 13.5605 85.84 12.3905 85.55 11.3005C85.26 10.2105 84.87 9.26051 84.37 8.44051C83.87 7.62051 83.29 6.98051 82.61 6.51051C81.93 6.04051 81.21 5.81051 80.43 5.81051C79.66 5.81051 78.94 6.05051 78.27 6.51051C77.6 6.98051 77.02 7.62051 76.51 8.44051C76.01 9.26051 75.61 10.2105 75.31 11.3005C75.02 12.3905 74.88 13.5605 74.88 14.8105C74.88 16.0605 75.02 17.2305 75.31 18.3205C75.61 19.4105 76.01 20.3705 76.51 21.1905C77.02 22.0005 77.6 22.6505 78.27 23.1105C78.94 23.5805 79.66 23.8105 80.43 23.8105ZM96.64 3.80051V11.3105H100.58V14.0605H96.64V26.7505H92.88V3.80051H96.64ZM110.84 18.7705C109.94 19.8305 108.9 20.8005 107.72 21.6605C106.54 22.5205 105.2 23.2305 103.72 23.7805L102.7 21.9105C103.93 21.4205 105.03 20.7205 106 19.8405C106.97 18.9605 107.79 17.9605 108.46 16.8205C109.13 15.7005 109.64 14.4705 109.99 13.1505C110.34 11.8305 110.51 10.4905 110.51 9.10051V6.58051H104.1V4.27051H112.41C112.96 4.27051 113.43 4.47051 113.82 4.86051C114.22 5.26051 114.41 5.73051 114.41 6.28051V9.11051C114.41 10.2105 114.28 11.3005 114.03 12.3605C113.77 13.4205 113.41 14.4605 112.93 15.4705C113.5 16.7605 114.22 17.9105 115.12 18.9305C116.01 19.9505 117.11 20.8305 118.41 21.5805L117.17 23.7605C116.02 23.1705 114.88 22.4705 113.75 21.6405C112.64 20.8105 111.67 19.8605 110.84 18.7705ZM120.28 26.7505V14.0705H116.15V11.3205H120.28V3.80051H123.75V26.7505H120.28ZM125.78 3.80051H129.47V26.7505H125.78V3.80051ZM142.35 3.52051C143.65 3.52051 144.88 3.70051 146.02 4.06051C147.17 4.42051 148.17 4.90051 149.02 5.50051C149.87 6.11051 150.55 6.82051 151.05 7.65051C151.54 8.48051 151.79 9.36051 151.79 10.2905C151.79 11.2305 151.54 12.1005 151.05 12.9205C150.55 13.7405 149.88 14.4505 149.02 15.0605C148.17 15.6605 147.17 16.1405 146.02 16.5005C144.87 16.8505 143.65 17.0305 142.35 17.0305C141.05 17.0305 139.82 16.8505 138.68 16.5005C137.53 16.1405 136.53 15.6605 135.68 15.0605C134.82 14.4505 134.15 13.7405 133.66 12.9205C133.17 12.1005 132.92 11.2305 132.92 10.2905C132.92 9.35051 133.17 8.47051 133.66 7.65051C134.16 6.83051 134.83 6.11051 135.68 5.50051C136.53 4.90051 137.53 4.42051 138.68 4.06051C139.82 3.71051 141.05 3.52051 142.35 3.52051ZM135.72 18.7205H158.67V26.7605H154.91V21.0405H135.72V18.7205ZM142.35 14.8705C143.14 14.8705 143.88 14.7505 144.57 14.5105C145.26 14.2705 145.86 13.9405 146.37 13.5205C146.88 13.1005 147.29 12.6105 147.58 12.0605C147.88 11.5105 148.02 10.9105 148.02 10.2705C148.02 9.65051 147.88 9.05051 147.58 8.49051C147.29 7.93051 146.88 7.44051 146.37 7.02051C145.86 6.60051 145.26 6.27051 144.57 6.03051C143.89 5.79051 143.15 5.67051 142.35 5.67051C141.56 5.67051 140.82 5.79051 140.14 6.03051C139.45 6.27051 138.85 6.60051 138.34 7.02051C137.82 7.44051 137.42 7.93051 137.12 8.49051C136.83 9.05051 136.68 9.64051 136.68 10.2705C136.68 10.9105 136.82 11.5105 137.12 12.0605C137.41 12.6105 137.82 13.1005 138.34 13.5205C138.85 13.9405 139.45 14.2705 140.14 14.5105C140.82 14.7505 141.56 14.8705 142.35 14.8705ZM158.67 17.5905H154.91V3.80051H158.67V6.47051H162.58V8.67051H158.67V11.0705H162.58V13.2405H158.67V17.5905Z" fill="black"/>
<path d="M10.8901 29.2796C10.8901 29.2796 11.0001 23.6296 10.2701 21.5196C9.53005 19.4096 8.70005 16.0196 3.20005 12.4796C1.28005 11.2396 0.65005 11.3496 0.46005 11.4696C0.26005 11.5796 -0.0399498 12.0996 0.0100502 14.3696C0.0700502 16.6496 -0.0999498 22.9096 2.57005 25.6796C5.25005 28.4296 7.32005 29.0896 10.8901 29.2796Z" fill="#00A0CA"/>
<path d="M15.2301 14.3501C19.5301 7.46007 26.0201 5.03007 26.7301 4.82007C27.3401 4.64007 27.6501 4.44007 27.7001 3.93007C27.7601 3.44007 26.9701 2.40007 24.6901 1.31007C21.5701 -0.169927 15.2401 7.34902e-05 15.2401 7.34902e-05C15.2401 7.34902e-05 8.91008 -0.169927 5.79008 1.32007C3.51008 2.40007 2.71008 3.45007 2.77008 3.93007C2.83008 4.43007 3.12008 4.63007 3.74008 4.82007C4.44008 5.03007 10.9301 7.46007 15.2301 14.3501Z" fill="#00A0CA"/>
<path d="M15.23 29.4902C16.36 29.4902 17.41 29.4402 18.36 29.3802C18.36 29.3802 18.47 24.2902 18.16 22.4002C17.82 20.3002 17.09 16.9702 15.23 14.4102C13.38 16.9702 12.66 20.3002 12.31 22.4002C12.01 24.2902 12.12 29.3802 12.12 29.3802C13.07 29.4402 14.11 29.4902 15.23 29.4902Z" fill="#00A0CA"/>
<path d="M19.5801 29.2796C19.5801 29.2796 19.4601 23.6296 20.2001 21.5196C20.9501 19.4096 21.7701 16.0196 27.2701 12.4796C29.1801 11.2396 29.8201 11.3496 30.0201 11.4696C30.2201 11.5796 30.5201 12.0996 30.4601 14.3696C30.4001 16.6496 30.5801 22.9096 27.9001 25.6796C25.2201 28.4296 23.1401 29.0896 19.5801 29.2796Z" fill="#00A0CA"/>
<path d="M1.90001 6.50996C1.52001 6.43996 1.26001 6.04996 1.26001 5.62996C1.26001 5.11996 1.67001 4.70996 2.17001 4.70996C2.25001 4.70996 2.41001 4.72996 2.54001 4.78996C2.54001 4.78996 6.67001 6.65996 9.27001 10.09L9.20001 10.2C5.72001 7.46996 1.90001 6.50996 1.90001 6.50996Z" fill="#00A0CA"/>
<path d="M0.98011 8.64031C0.59011 8.54031 0.30011 8.19031 0.29011 7.78031C0.28011 7.28031 0.66011 6.82031 1.17011 6.82031C1.29011 6.82031 1.45011 6.85031 1.58011 6.90031C1.58011 6.90031 5.74011 8.58031 8.34011 11.7703L8.27011 11.8603C4.63011 9.29031 0.98011 8.64031 0.98011 8.64031Z" fill="#00A0CA"/>
<path d="M0.800027 10.9397C0.420027 10.8497 0.140027 10.5097 0.130027 10.1197C0.110027 9.61969 0.490027 9.17969 0.990027 9.17969C1.02003 9.17969 1.18003 9.18969 1.34003 9.23969C1.34003 9.23969 5.35003 10.8697 7.44003 13.3997L7.37003 13.5097C3.89003 11.2897 0.800027 10.9397 0.800027 10.9397Z" fill="#00A0CA"/>
<path d="M28.5601 6.50996C28.9601 6.42996 29.2201 6.03996 29.2201 5.62996C29.2201 5.11996 28.8001 4.70996 28.3001 4.70996C28.2201 4.70996 28.0601 4.72996 27.9401 4.78996C27.9401 4.78996 23.8101 6.65996 21.2101 10.09L21.2801 10.19C24.7501 7.46996 28.5601 6.50996 28.5601 6.50996Z" fill="#00A0CA"/>
<path d="M29.49 8.64031C29.87 8.54031 30.16 8.20031 30.18 7.78031C30.2 7.28031 29.8 6.82031 29.3 6.82031C29.18 6.82031 29.02 6.85031 28.89 6.90031C28.89 6.90031 24.73 8.58031 22.12 11.7703L22.2 11.8603C25.84 9.29031 29.49 8.64031 29.49 8.64031Z" fill="#00A0CA"/>
<path d="M29.67 10.9404C30.04 10.8504 30.33 10.5104 30.34 10.1204C30.37 9.63043 29.99 9.19043 29.5 9.19043C29.45 9.19043 29.3 9.20043 29.14 9.25043C29.14 9.25043 25.13 10.8804 23.04 13.4104L23.11 13.5204C26.57 11.2904 29.67 10.9404 29.67 10.9404Z" fill="#00A0CA"/>
</g>
<defs>
<clipPath id="clip0_76_81">
<rect width="162.58" height="29.49" fill="white"/>
</clipPath>
</defs>
</svg>
