<svg width="82" height="53" viewBox="0 0 82 53" fill="none" xmlns="http://www.w3.org/2000/svg">
<g clip-path="url(#clip0_76_66)">
<path d="M81.5399 30.4808C81.8436 29.1826 82 27.8536 82 26.5C82 26.3216 81.9969 26.1462 81.9847 25.9709L81.7116 25.9739L77.2299 26.0662C77.2023 25.1556 77.098 24.2635 76.917 23.3836L81.6442 23.0114C81.3343 21.4916 80.8312 20.0211 80.141 18.5968L79.868 18.6552L75.6102 19.5443C75.1777 18.646 74.6623 17.7661 74.0733 16.9201L78.4416 15.6896C77.4845 14.3052 76.3495 12.9824 75.055 11.7364L74.8218 11.841L71.1284 13.4807C70.3186 12.6993 69.4413 11.9518 68.4995 11.2442L72.1469 9.26608C70.6284 8.12166 68.9627 7.06031 67.162 6.0974L66.9872 6.23584L64.168 8.48775C63.1005 7.91554 61.9808 7.38025 60.8182 6.89111L63.4748 4.33155C61.5299 3.51016 59.4716 2.78721 57.3212 2.18116L57.2107 2.35344L55.4683 5.02066C54.1523 4.64842 52.7873 4.32232 51.3884 4.0516L52.8087 1.11673C50.597 0.689111 48.3116 0.375319 45.9618 0.190736L45.9312 0.372243L45.4404 3.24559C44.0753 3.14099 42.6918 3.08254 41.293 3.07331L41.385 0H40.9985C38.7561 0 36.5535 0.116903 34.4093 0.338403L35.2191 3.36864C33.7743 3.51939 32.3601 3.72243 30.9828 3.97777L29.7158 1.01213C27.4519 1.4336 25.2678 1.97504 23.1819 2.62416L25.2985 5.37752C24.0408 5.76823 22.826 6.20507 21.6573 6.68499L19.1725 4.06083C17.1908 4.86992 15.3257 5.78053 13.5956 6.78959L16.8104 9.05688C15.7306 9.68139 14.7122 10.3459 13.7551 11.0504L10.2151 8.99536C8.67824 10.1275 7.27941 11.3426 6.05544 12.6316L10.1415 14.2098C9.41446 14.9728 8.75493 15.7634 8.16288 16.5787L3.87438 15.2404C2.88968 16.594 2.07676 18.0122 1.45404 19.4797L6.05544 20.2642C5.67506 21.1594 5.37443 22.0731 5.15663 23.0083L0.457072 22.5161C0.159515 23.8205 0 25.1495 0 26.5C0 26.6784 0.0061352 26.8538 0.0122704 27.0322L4.76705 26.9338C4.79466 27.8413 4.89896 28.7396 5.07994 29.6195L0.355842 29.9886C0.665669 31.5084 1.16876 32.9819 1.8559 34.4063L6.38674 33.4588C6.81927 34.3602 7.33463 35.2308 7.92361 36.086L3.82223 37.2366L3.55842 37.3104C4.51551 38.6948 5.65359 40.0176 6.94811 41.2636L10.8746 39.5224C11.6814 40.3007 12.5618 41.0482 13.5036 41.7589L10.0679 43.6201L9.8562 43.7339C11.3777 44.8783 13.0404 45.9397 14.841 46.9026L17.8381 44.5122C18.9025 45.0875 20.0222 45.6228 21.1848 46.112L18.5314 48.6654C20.4732 49.4898 22.5315 50.2097 24.685 50.8127L26.5347 47.9793C27.8538 48.3516 29.2158 48.6746 30.6116 48.9422L29.2802 51.7048L29.1943 51.8771C31.403 52.3047 33.6914 52.6216 36.0382 52.8L36.5627 49.7452C37.9247 49.8529 39.3113 49.9113 40.7193 49.9205L40.6212 52.9938C40.7469 52.9938 40.8758 52.9969 41.0015 52.9969C43.2409 52.9969 45.4403 52.88 47.5846 52.6524L46.7748 49.6252C48.2165 49.4745 49.6338 49.2714 51.0142 49.013L52.275 51.9817C54.5419 51.5633 56.7261 51.0219 58.809 50.3697L56.6954 47.6132C57.9531 47.2225 59.1648 46.7857 60.3335 46.3058L62.8244 48.9299C64.803 48.1239 66.6681 47.2133 68.4044 46.2043L65.1834 43.94C66.2602 43.3155 67.2847 42.648 68.2388 41.9435L71.7788 43.9954C73.3187 42.8664 74.7145 41.6512 75.9354 40.3591L71.8555 38.7809C72.5825 38.018 73.242 37.2274 73.8341 36.409L78.1195 37.7503C79.1042 36.3906 79.9202 34.9754 80.5429 33.508L75.9354 32.7235C76.3188 31.8314 76.6225 30.9115 76.8372 29.9794L81.5399 30.4808Z" fill="#000B8C"/>
<path d="M69.9597 18.7227C69.9597 19.2088 69.7879 19.6241 69.4382 19.9687C69.0977 20.3101 68.6713 20.4886 68.1804 20.4886C67.6927 20.4886 67.2724 20.3101 66.9258 19.9687C66.5761 19.6241 66.4012 19.2088 66.4012 18.7227C66.4012 18.2336 66.5792 17.8213 66.9258 17.4768C67.2724 17.1322 67.6927 16.96 68.1804 16.96C68.6713 16.96 69.0977 17.1322 69.4382 17.4768C69.7879 17.8213 69.9597 18.2336 69.9597 18.7227ZM69.7296 18.7227C69.7296 18.292 69.5762 17.929 69.2787 17.6275C68.975 17.323 68.6099 17.1753 68.1804 17.1753C67.7541 17.1753 67.389 17.323 67.0853 17.6275C66.7847 17.929 66.6374 18.2951 66.6374 18.7227C66.6374 19.1534 66.7847 19.5195 67.0853 19.8179C67.389 20.1225 67.751 20.2702 68.1804 20.2702C68.6099 20.2702 68.975 20.1225 69.2787 19.8179C69.5731 19.5195 69.7296 19.1534 69.7296 18.7227ZM69.2142 19.8087H68.7878L68.1406 18.8889H67.6988V19.8087H67.3461V17.5383H68.297C68.521 17.5383 68.7081 17.5968 68.8523 17.726C68.9964 17.8521 69.0731 18.0121 69.0731 18.209C69.0731 18.3689 69.024 18.5105 68.9289 18.6274C68.8308 18.7504 68.705 18.8273 68.5578 18.8612L69.2142 19.8087ZM68.6958 18.2059C68.6958 18.089 68.6529 17.9998 68.567 17.9383C68.4811 17.8798 68.3768 17.8521 68.2602 17.8521H67.6958V18.5505H68.2602C68.3768 18.5505 68.4811 18.5289 68.567 18.4735C68.6559 18.4151 68.6958 18.329 68.6958 18.2059Z" fill="white"/>
<path d="M21.6051 19.6953C21.5314 18.754 20.7615 18.0156 19.8259 18.0156C18.8902 18.0156 18.1233 18.7509 18.0466 19.6861V19.6892C18.0466 19.6892 18.0466 19.6923 18.0466 19.6953V24.7252C18.062 24.9806 17.8534 25.0144 17.8534 25.0144H14.8226C14.6017 24.9406 14.6355 24.756 14.6355 24.756V23.2116C14.6355 23.2116 14.6477 23.0917 14.7367 23.0794H16.4362H16.4392C17.1202 23.0209 17.6571 22.3995 17.6571 21.6458C17.6571 20.892 17.1202 20.2706 16.4362 20.2122V20.2152H14.7428C14.6171 20.2122 14.6324 20.0276 14.6324 20.0276C14.6324 20.0122 14.6201 19.7599 14.614 19.6584V19.6153C14.614 19.6153 14.6109 19.6 14.6048 19.5815C14.4944 18.7078 13.752 18.0279 12.844 18.0279C11.9114 18.0279 11.1445 18.7447 11.0709 19.6584H11.0771L11.0709 19.6615V26.3126C11.0709 26.3126 11.1384 27.5678 12.5925 27.5094H20.3903C21.5744 27.4386 21.6051 26.3126 21.6051 26.3126V19.6953Z" fill="white"/>
<path d="M28.9858 21.4888C28.9827 21.4888 28.9765 21.4888 28.9735 21.4858L28.9704 21.4827L27.679 21.4242C27.5624 21.4242 27.5409 21.3073 27.5378 21.2581V19.5446V19.5292C27.5378 19.5292 27.5378 19.5199 27.5317 19.5015C27.4274 18.5078 26.59 17.7295 25.5654 17.7295C24.5255 17.7295 23.6757 18.5324 23.5898 19.5446H23.5929V26.4234V26.4264V26.4357C23.5929 26.4357 23.5929 26.4387 23.596 26.448C23.6911 27.454 24.5377 28.2384 25.5654 28.2384C26.5961 28.2384 27.4397 27.454 27.5348 26.448C27.5378 26.4387 27.5378 26.4357 27.5378 26.4357V26.4264V26.4234V24.7313C27.5409 24.6821 27.5655 24.5652 27.679 24.5652L28.9612 24.5068C28.9643 24.5068 28.9704 24.5068 28.9735 24.5037H28.9765C28.9858 24.5037 28.995 24.5037 29.0011 24.5006C29.6269 24.4114 30.1146 23.7746 30.1146 22.9963C30.1146 22.2087 29.6207 21.5657 28.9858 21.4888Z" fill="white"/>
<path d="M27.6606 33.5234H27.6575V33.5296L27.6606 33.5234Z" fill="white"/>
<path d="M23.7217 33.5296V33.5265L23.7186 33.5234L23.7217 33.5296Z" fill="white"/>
<path d="M27.6575 33.52V30.5974C27.6575 29.3699 26.6912 29.3361 26.6912 29.3361H13.1907V29.333C13.1877 29.333 13.1846 29.333 13.1815 29.3361C12.5557 29.4191 12.068 30.0467 12.068 30.8035C12.068 31.5665 12.5588 32.194 13.1877 32.274H23.4703C23.4703 32.274 23.7218 32.2463 23.7218 32.3848V33.52H23.7187C23.7187 33.523 23.7187 33.523 23.7218 33.523V33.5261V33.5354C23.8384 34.4583 24.6728 35.172 25.6912 35.172C26.7127 35.172 27.5502 34.449 27.6575 33.523V33.52Z" fill="white"/>
<path d="M53.4683 26.0695H53.4621L53.4805 26.1618L53.4836 26.168V26.1803V26.1772C53.4836 26.1834 53.4836 26.1865 53.4867 26.1895V26.1926C53.4867 26.1988 53.4897 26.2018 53.4897 26.2018L53.4928 26.2172L53.5112 26.3034H53.5173C53.6155 26.7033 53.8364 27.0478 54.1677 27.297C54.5603 27.5862 55.0389 27.697 55.5512 27.62C55.5726 27.617 55.591 27.6108 55.6094 27.6108C57.2782 27.2386 58.8856 26.4295 60.3826 25.2112C61.2017 24.5375 61.8673 23.8392 62.3704 23.1316C62.8735 23.8392 63.5422 24.5344 64.3582 25.2112C65.8583 26.4295 67.4596 27.2386 69.1314 27.6108C69.1529 27.6139 69.1713 27.62 69.1897 27.6231C69.702 27.7 70.1805 27.5893 70.5763 27.3001C70.9076 27.0509 71.1223 26.7094 71.2235 26.3064H71.2266C71.2297 26.3064 71.2419 26.2326 71.2481 26.2141V26.208V26.2049C71.2511 26.2018 71.2511 26.1988 71.2511 26.1957C71.2511 26.1895 71.2511 26.1834 71.2542 26.1803V26.1772C71.2542 26.1741 71.2573 26.1649 71.2573 26.1649L71.2757 26.0665H71.2726C71.3278 25.6635 71.2573 25.2728 71.064 24.9282L71.0671 24.9221L71.018 24.8421L71.0119 24.8298L71.0057 24.8236C71.0027 24.8144 70.9934 24.8082 70.9934 24.8082L70.9904 24.8052C70.8217 24.5375 70.4965 24.2145 69.929 24.0822V24.0791C69.929 24.076 69.8308 24.0545 69.8308 24.0545C68.4473 23.75 67.1436 23.0208 65.9534 21.8949C65.2356 21.2089 64.7171 20.4951 64.4257 19.7999C64.3674 19.6245 63.8521 18.1602 62.3888 18.1602C60.9072 18.1602 60.3857 19.6276 60.3274 19.7999C60.036 20.4951 59.5145 21.2089 58.7967 21.8949C57.6064 23.0208 56.3027 23.7469 54.9192 24.0545L54.8211 24.0761V24.0822C54.275 24.2083 53.956 24.5129 53.7781 24.7713C53.7627 24.7928 53.7474 24.8175 53.7474 24.8175L53.7443 24.8236C53.7443 24.8267 53.7413 24.8298 53.7413 24.8298L53.7382 24.8359L53.6768 24.919C53.6768 24.919 53.6799 24.9221 53.683 24.9221C53.4805 25.2697 53.4069 25.6635 53.4683 26.0695Z" fill="white"/>
<path d="M54.68 34.6029C53.6677 34.5352 53.0143 33.8245 53.0143 32.9539C53.0143 32.0864 53.6615 31.3757 54.6677 31.3019V31.2988H69.9781V31.3019C70.9873 31.3727 71.6438 32.0833 71.6438 32.9539C71.6438 33.8245 70.9873 34.5321 69.9781 34.6029H65.5638H54.68Z" fill="white"/>
<path d="M32.8634 32.9951V32.9919C32.8601 32.9886 32.8601 32.9854 32.8601 32.9854L32.8634 32.9951Z" fill="white"/>
<path d="M41.9494 18.8703H34.0902V18.8672C33.3049 18.9318 32.6853 19.5871 32.6853 20.3931C32.6853 21.1991 33.3049 21.8574 34.0902 21.922V21.919H39.0444C39.0444 21.919 39.1395 21.9343 39.1395 22.0143C39.1395 22.0143 39.1027 23.1157 38.8021 23.8017C38.8021 23.8017 38.7622 23.8909 38.6824 23.8909H33.989V23.8879C33.9829 23.8879 33.9829 23.8909 33.9798 23.8909H33.9706C33.2129 23.9617 32.6208 24.5985 32.6208 25.3799C32.6208 26.1613 33.216 26.8012 33.9798 26.8658C33.9829 26.8658 33.9829 26.8658 33.9859 26.8689V26.8658H37.8143C37.8143 26.8658 37.9155 26.8904 37.8511 27.0165C37.8511 27.0165 36.5535 29.733 33.808 30.8836L33.8111 30.8805C33.8111 30.8805 32.4797 31.7111 32.8601 32.9878C33.1301 33.8953 34.0596 34.3199 34.8725 34.0892V34.0953C34.8725 34.0953 40.5107 32.3172 42.1764 25.5306H42.1795C42.8452 22.9772 42.6274 19.7839 42.6274 19.7839C42.6274 19.7839 42.5415 18.9441 41.9494 18.8703Z" fill="white"/>
<path d="M51.7473 25.4413C51.7473 24.62 51.232 23.9462 50.5663 23.857V23.8539L48.6705 23.7924C48.4711 23.7863 48.4711 23.5094 48.4711 23.5094V19.5531C48.3944 18.6179 47.603 17.8857 46.6367 17.8857C45.6704 17.8857 44.8759 18.6179 44.7992 19.5531V33.4615C44.882 34.3936 45.6735 35.1197 46.6367 35.1197C47.603 35.1197 48.3975 34.3875 48.4711 33.4492V27.3426C48.4711 27.3426 48.4711 27.0626 48.6705 27.0626V27.0595L50.5663 27.0226H50.5939V27.0165C51.2442 26.9149 51.7473 26.2474 51.7473 25.4413Z" fill="white"/>
</g>
<defs>
<clipPath id="clip0_76_66">
<rect width="82" height="53" fill="white"/>
</clipPath>
</defs>
</svg>
