<svg width="465" height="69" viewBox="0 0 465 69" fill="none" xmlns="http://www.w3.org/2000/svg">
<path d="M21.024 40.464L21.7154 38.5873L21.7136 38.5867L21.024 40.464ZM13.296 37.356L12.4877 39.1854L13.296 37.356ZM6.996 33.66L5.71078 35.1924L5.73736 35.2147L5.76471 35.236L6.996 33.66ZM2.796 28.452L1.00715 29.3464L1.01697 29.3661L1.02723 29.3855L2.796 28.452ZM3.048 11.484L4.87402 12.2999L3.048 11.484ZM7.92 5.016L9.1796 6.56951L9.17961 6.56951L7.92 5.016ZM15.312 1.32L15.8414 3.24865L15.8539 3.24523L15.8663 3.24164L15.312 1.32ZM34.296 1.32L33.7317 3.23875L33.7417 3.24164L34.296 1.32ZM41.772 5.016L40.5382 6.59011V6.59011L41.772 5.016ZM46.644 10.98L44.8551 11.8744L44.8595 11.8831L44.8639 11.8918L46.644 10.98ZM48.408 19.212L50.4055 19.3119L50.408 19.262V19.212H48.408ZM29.76 15.516L28.4313 17.0108L28.4749 17.0496L28.5207 17.0858L29.76 15.516ZM21.696 24.336L22.725 22.621L21.696 24.336ZM29.76 27.78L29.1018 29.6686L29.107 29.6704L29.76 27.78ZM37.992 31.14L38.8697 29.3429L37.992 31.14ZM44.04 35.172L42.6772 36.6358L42.7032 36.6601L42.7301 36.6834L44.04 35.172ZM47.82 40.296L45.9817 41.0838L45.9911 41.1058L46.0011 41.1275L47.82 40.296ZM47.232 56.76L45.4284 55.8958L45.4245 55.9039L45.4206 55.9121L47.232 56.76ZM42.108 63.396L43.3525 64.9616L43.3646 64.952L43.3766 64.9421L42.108 63.396ZM34.296 67.26L33.7607 65.3329L33.7514 65.3356L34.296 67.26ZM15.06 67.26L14.5057 69.1817L14.5154 69.1844L15.06 67.26ZM7.416 63.564L8.60941 61.9591H8.60941L7.416 63.564ZM2.208 57.684L0.436337 58.612L0.449663 58.6375L0.463714 58.6625L2.208 57.684ZM0.36 49.368L-1.6375 49.2681L-1.64 49.318V49.368H0.36ZM19.176 53.232L18.0666 54.8961L18.0843 54.9079L18.1022 54.9193L19.176 53.232ZM29.676 52.812L28.226 51.4345L28.2241 51.4365L29.676 52.812ZM30.264 45.252L28.7023 46.5014L28.7234 46.5279L28.7455 46.5536L30.264 45.252ZM27.744 43.152L26.7011 44.8586L26.7365 44.8802L26.7727 44.9003L27.744 43.152ZM24.384 41.64L23.7515 43.5374L23.7645 43.5417L23.7776 43.5458L24.384 41.64ZM21.7136 38.5867C19.0054 37.5918 16.4693 36.5716 14.1043 35.5266L12.4877 39.1854C14.9387 40.2684 17.5546 41.3202 20.3344 42.3413L21.7136 38.5867ZM14.1043 35.5266C11.8241 34.5191 9.87077 33.3679 8.22729 32.084L5.76471 35.236C7.70523 36.7521 9.9519 38.0649 12.4877 39.1854L14.1043 35.5266ZM8.28122 32.1276C6.7449 30.8391 5.50864 29.3069 4.56477 27.5185L1.02723 29.3855C2.21136 31.6291 3.7751 33.5689 5.71078 35.1924L8.28122 32.1276ZM4.58485 27.5576C3.75254 25.8929 3.284 23.7279 3.284 20.976H-0.716C-0.716 24.16 -0.176541 26.9791 1.00715 29.3464L4.58485 27.5576ZM3.284 20.976C3.284 17.4849 3.84022 14.6136 4.87402 12.2999L1.22198 10.6681C-0.0962148 13.6184 -0.716 17.0751 -0.716 20.976H3.284ZM4.87402 12.2999C5.93237 9.93119 7.37111 8.03586 9.1796 6.56951L6.6604 3.46249C4.32489 5.35614 2.51563 7.77281 1.22198 10.6681L4.87402 12.2999ZM9.17961 6.56951C11.0142 5.08201 13.2226 3.96754 15.8414 3.24865L14.7826 -0.608656C11.6894 0.24045 8.96981 1.58999 6.6604 3.46249L9.17961 6.56951ZM15.8663 3.24164C18.5742 2.46054 21.5768 2.06 24.888 2.06V-1.94C21.2552 -1.94 17.8738 -1.50054 14.7577 -0.601651L15.8663 3.24164ZM24.888 2.06C28.1405 2.06 31.0836 2.45989 33.7317 3.23873L34.8603 -0.598735C31.7964 -1.49989 28.4675 -1.94 24.888 -1.94V2.06ZM33.7417 3.24164C36.4439 4.02113 38.6965 5.14658 40.5382 6.59011L43.0058 3.44189C40.7035 1.63741 37.9721 0.29886 34.8503 -0.601651L33.7417 3.24164ZM40.5382 6.59011C42.3774 8.03165 43.8117 9.7876 44.8551 11.8744L48.4329 10.0856C47.1243 7.4684 45.3106 5.24835 43.0058 3.44189L40.5382 6.59011ZM44.8639 11.8918C45.875 13.8658 46.408 16.1771 46.408 18.876H50.408C50.408 15.6389 49.765 12.6862 48.4241 10.0682L44.8639 11.8918ZM46.408 18.876V19.212H50.408V18.876H46.408ZM46.4105 19.1121C46.4041 19.2396 46.3865 19.2784 46.3937 19.2585C46.4037 19.2313 46.4413 19.1483 46.5318 19.0578C46.6241 18.9654 46.7203 18.9167 46.7795 18.8963C46.8295 18.879 46.823 18.892 46.728 18.892V22.892C47.6027 22.892 48.5905 22.6559 49.3602 21.8862C50.1131 21.1333 50.363 20.162 50.4055 19.3119L46.4105 19.1121ZM46.728 18.892H33.036V22.892H46.728V18.892ZM33.036 18.892C32.9254 18.892 32.9125 18.8768 32.9617 18.894C33.0216 18.915 33.1253 18.9678 33.2243 19.0717C33.3212 19.1735 33.3582 19.2662 33.3672 19.2946C33.3736 19.3145 33.356 19.2695 33.356 19.128H29.356C29.356 20.0006 29.5621 21.0264 30.3277 21.8303C31.1107 22.6525 32.1422 22.892 33.036 22.892V18.892ZM33.356 19.128V18.708H29.356V19.128H33.356ZM33.356 18.708C33.356 16.7716 32.5145 15.1425 30.9993 13.9462L28.5207 17.0858C29.1335 17.5695 29.356 18.0683 29.356 18.708H33.356ZM31.0887 14.0212C29.5702 12.6713 27.4941 12.172 25.224 12.172V16.172C26.9859 16.172 27.9338 16.5686 28.4313 17.0108L31.0887 14.0212ZM25.224 12.172C22.9067 12.172 20.8 12.7437 19.2837 14.2389C17.7623 15.7392 17.176 17.8326 17.176 20.136H21.176C21.176 18.4634 21.5977 17.5748 22.0923 17.0871C22.592 16.5943 23.5093 16.172 25.224 16.172V12.172ZM17.176 20.136C17.176 22.7061 18.4524 24.7222 20.667 26.051L22.725 22.621C21.5796 21.9338 21.176 21.1499 21.176 20.136H17.176ZM20.667 26.051C22.53 27.1688 25.3777 28.3708 29.1018 29.6686L30.4182 25.8914C26.7503 24.6132 24.222 23.5192 22.725 22.621L20.667 26.051ZM29.107 29.6704C32.126 30.7133 34.7928 31.8034 37.1143 32.9371L38.8697 29.3429C36.3752 28.1246 33.554 26.9747 30.413 25.8896L29.107 29.6704ZM37.1143 32.9371C39.3806 34.0439 41.2239 35.2827 42.6772 36.6358L45.4028 33.7082C43.6081 32.0373 41.4194 30.5881 38.8697 29.3429L37.1143 32.9371ZM42.7301 36.6834C44.1915 37.9499 45.266 39.4138 45.9817 41.0838L49.6583 39.5082C48.694 37.2582 47.2485 35.3061 45.3499 33.6606L42.7301 36.6834ZM46.0011 41.1275C46.7544 42.7754 47.164 44.7768 47.164 47.184H51.164C51.164 44.3272 50.6776 41.7366 49.639 39.4645L46.0011 41.1275ZM47.164 47.184C47.164 50.651 46.5599 53.5343 45.4284 55.8958L49.0356 57.6242C50.4801 54.6097 51.164 51.109 51.164 47.184H47.164ZM45.4206 55.9121C44.3114 58.2818 42.7859 60.2527 40.8394 61.8499L43.3766 64.9421C45.7981 62.9553 47.6886 60.5022 49.0434 57.6079L45.4206 55.9121ZM40.8635 61.8304C38.914 63.38 36.5587 64.5557 33.7607 65.333L34.8313 69.187C38.0813 68.2843 40.934 66.884 43.3525 64.9616L40.8635 61.8304ZM33.7514 65.3356C30.9812 66.1196 27.9466 66.52 24.636 66.52V70.52C28.2694 70.52 31.6748 70.0804 34.8406 69.1844L33.7514 65.3356ZM24.636 66.52C21.3846 66.52 18.3776 66.1204 15.6046 65.3356L14.5154 69.1844C17.6784 70.0796 21.0554 70.52 24.636 70.52V66.52ZM15.6143 65.3384C12.9066 64.5573 10.5805 63.4247 8.60941 61.9591L6.2226 65.1689C8.61953 66.9513 11.3894 68.2827 14.5057 69.1816L15.6143 65.3384ZM8.60941 61.9591C6.6432 60.497 5.09804 58.7479 3.95229 56.7055L0.463714 58.6625C1.89396 61.2121 3.8208 63.383 6.2226 65.1689L8.60941 61.9591ZM3.97966 56.756C2.91461 54.7227 2.36 52.3874 2.36 49.704H-1.64C-1.64 52.9566 -0.962609 55.9413 0.436337 58.612L3.97966 56.756ZM2.36 49.704V49.368H-1.64V49.704H2.36ZM2.3575 49.4679C2.36388 49.3404 2.38154 49.3016 2.37425 49.3215C2.36427 49.3487 2.32672 49.4317 2.23621 49.5222C2.14385 49.6146 2.04774 49.6633 1.98848 49.6837C1.93848 49.701 1.94499 49.688 2.04 49.688V45.688C1.1653 45.688 0.177491 45.9241 -0.592213 46.6938C-1.3451 47.4467 -1.595 48.418 -1.6375 49.2681L2.3575 49.4679ZM2.04 49.688H15.732V45.688H2.04V49.688ZM15.732 49.688C15.8426 49.688 15.8555 49.7032 15.8063 49.686C15.7465 49.665 15.6427 49.6122 15.5437 49.5083C15.4468 49.4065 15.4098 49.3138 15.4008 49.2854C15.3944 49.2655 15.412 49.3105 15.412 49.452H19.412C19.412 48.5794 19.2059 47.5536 18.4403 46.7497C17.6573 45.9275 16.6258 45.688 15.732 45.688V49.688ZM15.412 49.452V49.956H19.412V49.452H15.412ZM15.412 49.956C15.412 52.0324 16.3406 53.7454 18.0666 54.8961L20.2854 51.5679C19.6594 51.1506 19.412 50.6796 19.412 49.956H15.412ZM18.1022 54.9193C19.7958 55.997 22.0304 56.408 24.552 56.408V52.408C22.3696 52.408 21.0202 52.035 20.2498 51.5447L18.1022 54.9193ZM24.552 56.408C27.1704 56.408 29.5596 55.8429 31.1279 54.1875L28.2241 51.4365C27.7764 51.9091 26.7496 52.408 24.552 52.408V56.408ZM31.126 54.1895C32.631 52.6053 33.272 50.521 33.272 48.192H29.272C29.272 49.783 28.849 50.7787 28.226 51.4345L31.126 54.1895ZM33.272 48.192C33.272 46.6091 32.8082 45.1471 31.7825 43.9504L28.7455 46.5536C29.0638 46.9249 29.272 47.4229 29.272 48.192H33.272ZM31.8257 44.0026C30.9798 42.9452 29.9341 42.0808 28.7153 41.4037L26.7727 44.9003C27.5699 45.3432 28.2042 45.8788 28.7023 46.5014L31.8257 44.0026ZM28.7869 41.4454C27.6297 40.7383 26.3611 40.1703 24.9904 39.7341L23.7776 43.5458C24.8709 43.8937 25.8423 44.3337 26.7011 44.8586L28.7869 41.4454ZM25.0165 39.7426C23.8584 39.3566 22.7582 38.9715 21.7154 38.5873L20.3326 42.3407C21.4178 42.7405 22.5576 43.1394 23.7515 43.5374L25.0165 39.7426ZM72.3752 65.496C72.3752 65.6375 72.3576 65.6825 72.3639 65.6626C72.3729 65.6342 72.4099 65.5415 72.5069 65.4397C72.6058 65.3358 72.7096 65.283 72.7695 65.262C72.8186 65.2448 72.8058 65.26 72.6952 65.26V69.26C73.589 69.26 74.6204 69.0205 75.4034 68.1983C76.1691 67.3944 76.3752 66.3686 76.3752 65.496H72.3752ZM72.6952 65.26H58.4152V69.26H72.6952V65.26ZM58.4152 65.26C58.3045 65.26 58.2917 65.2448 58.3409 65.262C58.4007 65.283 58.5045 65.3358 58.6034 65.4397C58.7004 65.5415 58.7374 65.6342 58.7464 65.6626C58.7527 65.6825 58.7352 65.6375 58.7352 65.496H54.7352C54.7352 66.3686 54.9413 67.3944 55.7069 68.1983C56.4899 69.0205 57.5213 69.26 58.4152 69.26V65.26ZM58.7352 65.496V2.916H54.7352V65.496H58.7352ZM58.7352 2.916C58.7352 2.81983 58.7485 2.81978 58.7274 2.87992C58.7025 2.95081 58.6439 3.06334 58.5327 3.169C58.3027 3.38749 58.1386 3.32 58.4152 3.32V-0.680003C57.5717 -0.680003 56.5676 -0.481496 55.7777 0.268997C54.9685 1.03774 54.7352 2.04879 54.7352 2.916H58.7352ZM58.4152 3.32H72.6112V-0.680003H58.4152V3.32ZM72.6112 3.32C72.7608 3.32 72.8156 3.33764 72.8054 3.33456C72.788 3.32931 72.6978 3.29752 72.5923 3.20207C72.4825 3.10269 72.4181 2.99032 72.3882 2.90916C72.3626 2.83952 72.3752 2.82905 72.3752 2.916H76.3752C76.3752 2.02119 76.1187 0.998392 75.276 0.235924C74.4713 -0.492151 73.4607 -0.680003 72.6112 -0.680003V3.32ZM72.3752 2.916V65.496H76.3752V2.916H72.3752ZM82.9911 3.336L81.1703 4.1636L81.1992 4.22709L81.2324 4.28841L82.9911 3.336ZM82.9071 1.908L81.2796 0.745525L81.2608 0.771765L81.243 0.798596L82.9071 1.908ZM101.555 2.664L99.7227 3.46564L99.7393 3.50347L99.7574 3.54058L101.555 2.664ZM118.103 36.6L116.305 37.4766L120.103 36.6H118.103ZM134.735 66.588L133.321 65.1738L133.058 65.4364L132.907 65.7757L134.735 66.588ZM116.927 66L118.759 65.1984L118.726 65.1214L118.686 65.0476L116.927 66ZM83.7471 11.736L83.3893 9.76826L83.7471 11.736ZM85.0911 12.492L83.2703 13.3196L83.2991 13.3829L83.3322 13.444L85.0911 12.492ZM98.8671 37.944L100.656 37.0496L100.641 37.0205L100.626 36.992L98.8671 37.944ZM99.4551 39.54L97.5027 39.9739L97.5084 39.9995L97.5148 40.0251L99.4551 39.54ZM84.8118 2.50839C84.7343 2.33785 84.7515 2.31236 84.7566 2.39955C84.7596 2.45026 84.7583 2.54016 84.7305 2.65553C84.7018 2.77425 84.6498 2.89944 84.5712 3.0174L81.243 0.798596C80.4298 2.01831 80.8018 3.35281 81.1703 4.1636L84.8118 2.50839ZM84.5345 3.07047C84.4928 3.12885 84.4407 3.18353 84.3817 3.22945C84.3234 3.27478 84.2711 3.30173 84.2356 3.31635C84.1705 3.34314 84.1844 3.32 84.3351 3.32V-0.680003C83.2916 -0.680003 82.0703 -0.361459 81.2796 0.745525L84.5345 3.07047ZM84.3351 3.32H99.4551V-0.680003H84.3351V3.32ZM99.4551 3.32C99.5595 3.32 99.6195 3.33163 99.6459 3.33856C99.6699 3.34485 99.6696 3.34801 99.658 3.34054C99.6459 3.33284 99.6434 3.32769 99.6511 3.33718C99.6604 3.34859 99.6878 3.38576 99.7227 3.46564L103.387 1.86236C103.061 1.11738 102.553 0.444188 101.814 -0.0285447C101.08 -0.498647 100.259 -0.680003 99.4551 -0.680003V3.32ZM99.7574 3.54058L116.305 37.4766L119.901 35.7234L103.353 1.78742L99.7574 3.54058ZM120.103 36.6V2.916H116.103V36.6H120.103ZM120.103 2.916C120.103 2.81983 120.116 2.81978 120.095 2.87992C120.07 2.95081 120.012 3.06334 119.901 3.169C119.671 3.38749 119.506 3.32 119.783 3.32V-0.680003C118.94 -0.680003 117.936 -0.481496 117.146 0.268997C116.336 1.03774 116.103 2.04879 116.103 2.916H120.103ZM119.783 3.32H133.139V-0.680003H119.783V3.32ZM133.139 3.32C133.289 3.32 133.344 3.33764 133.333 3.33456C133.316 3.32931 133.226 3.29752 133.12 3.20207C133.01 3.10269 132.946 2.99032 132.916 2.90916C132.89 2.83952 132.903 2.82905 132.903 2.916H136.903C136.903 2.0212 136.647 0.998394 135.804 0.235926C134.999 -0.49215 133.989 -0.680003 133.139 -0.680003V3.32ZM132.903 2.916V66.084H136.903V2.916H132.903ZM132.903 66.084C132.903 65.9997 132.925 65.5692 133.321 65.1738L136.149 68.0022C136.769 67.3828 136.903 66.6163 136.903 66.084H132.903ZM132.907 65.7757C132.934 65.7152 132.98 65.6376 133.052 65.5599C133.125 65.4818 133.203 65.4249 133.274 65.3874C133.408 65.3166 133.454 65.344 133.307 65.344V69.344C133.888 69.344 134.536 69.2454 135.146 68.9226C135.79 68.5816 136.273 68.0509 136.563 67.4003L132.907 65.7757ZM133.307 65.344H119.027V69.344H133.307V65.344ZM119.027 65.344C118.923 65.344 118.863 65.3324 118.836 65.3254C118.812 65.3191 118.812 65.316 118.824 65.3235C118.836 65.3312 118.839 65.3363 118.831 65.3268C118.822 65.3154 118.794 65.2782 118.759 65.1984L115.095 66.8016C115.421 67.5466 115.929 68.2198 116.668 68.6925C117.402 69.1626 118.223 69.344 119.027 69.344V65.344ZM118.686 65.0476L84.7497 2.38358L81.2324 4.28841L115.168 66.9524L118.686 65.0476ZM84.8231 12.828C84.8231 12.8523 84.8124 13.1112 84.5808 13.3849C84.3526 13.6546 84.1088 13.703 84.1048 13.7037L83.3893 9.76826C82.7693 9.88098 82.0635 10.1674 81.5273 10.8011C80.9877 11.4388 80.8231 12.1877 80.8231 12.828H84.8231ZM84.1048 13.7037C84.0579 13.7123 83.8301 13.7335 83.5645 13.5841C83.3167 13.4448 83.2508 13.2766 83.2703 13.3196L86.9118 11.6644C86.6514 11.0914 86.2214 10.4892 85.5256 10.0978C84.812 9.69648 84.0523 9.64772 83.3893 9.76826L84.1048 13.7037ZM83.3322 13.444L97.1082 38.896L100.626 36.992L86.85 11.54L83.3322 13.444ZM97.0782 38.8384C97.3 39.282 97.4327 39.659 97.5027 39.9739L101.407 39.1061C101.253 38.413 100.994 37.726 100.656 37.0496L97.0782 38.8384ZM97.5148 40.0251C97.5798 40.2851 97.6231 40.6222 97.6231 41.052H101.623C101.623 40.3618 101.554 39.6909 101.395 39.0549L97.5148 40.0251ZM97.6231 41.052V65.664H101.623V41.052H97.6231ZM97.6231 65.664C97.6231 65.7602 97.6098 65.7602 97.6309 65.7001C97.6557 65.6292 97.7143 65.5167 97.8256 65.411C98.0556 65.1925 98.2197 65.26 97.9431 65.26V69.26C98.7865 69.26 99.7906 69.0615 100.581 68.311C101.39 67.5423 101.623 66.5312 101.623 65.664H97.6231ZM97.9431 65.26H84.5871V69.26H97.9431V65.26ZM84.5871 65.26C84.4375 65.26 84.3826 65.2424 84.3928 65.2454C84.4102 65.2507 84.5004 65.2825 84.6059 65.3779C84.7157 65.4773 84.7801 65.5897 84.81 65.6708C84.8357 65.7405 84.8231 65.7509 84.8231 65.664H80.8231C80.8231 66.5588 81.0795 67.5816 81.9222 68.3441C82.727 69.0721 83.7375 69.26 84.5871 69.26V65.26ZM84.8231 65.664V12.828H80.8231V65.664H84.8231ZM192.67 56.088L190.825 55.3164L192.67 56.088ZM187.21 63.48L185.974 61.9074L185.965 61.9146L185.956 61.922L187.21 63.48ZM178.978 67.344L178.533 65.3941L178.517 65.3978L178.501 65.4017L178.978 67.344ZM157.978 67.344L157.501 69.2863L157.978 67.344ZM149.662 63.312L148.385 64.8515L148.395 64.8591L148.404 64.8665L149.662 63.312ZM144.286 55.752L142.42 56.4721L142.428 56.4921L142.436 56.5118L144.286 55.752ZM144.286 12.912L142.431 12.1636L142.426 12.1777L142.42 12.1918L144.286 12.912ZM149.662 5.268L148.404 3.71351L148.395 3.72094L148.385 3.72848L149.662 5.268ZM179.146 1.32L178.637 3.25415L178.653 3.25834L178.669 3.26227L179.146 1.32ZM187.378 5.35199L186.101 6.89151L186.113 6.90085L186.124 6.91002L187.378 5.35199ZM192.67 12.744L190.813 13.4868L190.821 13.5073L190.83 13.5277L192.67 12.744ZM194.602 24.672L196.6 24.7719L196.602 24.722V24.672H194.602ZM175.45 16.692L173.863 17.9089L173.886 17.9384L173.909 17.9671L175.45 16.692ZM161.506 16.608L159.991 15.3021L159.988 15.3064L161.506 16.608ZM161.506 52.056L159.965 53.3311L159.989 53.36L160.014 53.388L161.506 52.056ZM175.45 52.056L173.909 50.7809L173.905 50.7865L175.45 52.056ZM192.602 44.58C192.602 49.0001 191.98 52.5541 190.825 55.3164L194.515 56.8596C195.936 53.4619 196.602 49.3439 196.602 44.58H192.602ZM190.825 55.3164C189.653 58.119 188.028 60.2937 185.974 61.9074L188.446 65.0526C191.096 62.9703 193.111 60.217 194.515 56.8596L190.825 55.3164ZM185.956 61.922C183.922 63.5594 181.463 64.726 178.533 65.3941L179.423 69.2939C182.878 68.506 185.906 67.0966 188.464 65.038L185.956 61.922ZM178.501 65.4017C175.485 66.1424 172.176 66.52 168.562 66.52V70.52C172.453 70.52 176.087 70.1136 179.455 69.2863L178.501 65.4017ZM168.562 66.52C164.832 66.52 161.467 66.1414 158.455 65.4017L157.501 69.2863C160.874 70.1146 164.565 70.52 168.562 70.52V66.52ZM158.455 65.4017C155.524 64.6818 153.025 63.4608 150.921 61.7575L148.404 64.8665C151.004 66.9712 154.048 68.4382 157.501 69.2863L158.455 65.4017ZM150.939 61.7725C148.928 60.1046 147.317 57.8671 146.136 54.9922L142.436 56.5118C143.831 59.9089 145.805 62.7114 148.385 64.8515L150.939 61.7725ZM146.152 55.0318C145.036 52.1404 144.438 48.4271 144.438 43.824H140.438C140.438 48.7409 141.072 52.9796 142.42 56.4721L146.152 55.0318ZM144.438 43.824V24.84H140.438V43.824H144.438ZM144.438 24.84C144.438 20.2369 145.036 16.5236 146.152 13.6321L142.42 12.1918C141.072 15.6844 140.438 19.9231 140.438 24.84H144.438ZM146.141 13.6604C147.324 10.7282 148.935 8.46924 150.939 6.80751L148.385 3.72848C145.797 5.87476 143.824 8.71176 142.431 12.1636L146.141 13.6604ZM150.921 6.82249C153.025 5.1192 155.524 3.89821 158.455 3.17827L157.501 -0.706275C154.048 0.141783 151.004 1.60879 148.404 3.71351L150.921 6.82249ZM158.455 3.17827C161.467 2.43862 164.832 2.06 168.562 2.06V-1.94C164.565 -1.94 160.874 -1.53462 157.501 -0.706275L158.455 3.17827ZM168.562 2.06C172.283 2.06 175.637 2.46455 178.637 3.25415L179.655 -0.614153C176.272 -1.50456 172.569 -1.94 168.562 -1.94V2.06ZM178.669 3.26227C181.598 3.98162 184.061 5.19945 186.101 6.89151L188.655 3.81248C186.103 1.69654 183.078 0.226378 179.623 -0.622276L178.669 3.26227ZM186.124 6.91002C188.12 8.51662 189.692 10.685 190.813 13.4868L194.527 12.0012C193.184 8.64296 191.228 5.88337 188.632 3.79397L186.124 6.91002ZM190.83 13.5277C191.983 16.2341 192.602 19.6734 192.602 23.916H196.602C196.602 19.3106 195.933 15.3019 194.51 11.9603L190.83 13.5277ZM192.602 23.916V24.672H196.602V23.916H192.602ZM192.605 24.5721C192.598 24.6996 192.581 24.7384 192.588 24.7185C192.598 24.6913 192.635 24.6083 192.726 24.5178C192.818 24.4254 192.914 24.3767 192.974 24.3563C193.024 24.339 193.017 24.352 192.922 24.352V28.352C193.797 28.352 194.785 28.1159 195.554 27.3462C196.307 26.5933 196.557 25.622 196.6 24.7719L192.605 24.5721ZM192.922 24.352H179.23V28.352H192.922V24.352ZM179.23 24.352C179.097 24.352 179.062 24.3346 179.091 24.3444C179.13 24.3574 179.224 24.3995 179.321 24.4968C179.419 24.5941 179.461 24.6884 179.474 24.7273C179.483 24.7565 179.466 24.7213 179.466 24.588H175.466C175.466 25.4843 175.692 26.5239 176.493 27.3252C177.294 28.1266 178.334 28.352 179.23 28.352V24.352ZM179.466 24.588V23.328H175.466V24.588H179.466ZM179.466 23.328C179.466 20.2163 178.717 17.5024 176.991 15.4169L173.909 17.9671C174.871 19.1296 175.466 20.8397 175.466 23.328H179.466ZM177.037 15.4751C175.198 13.0756 172.134 12.172 168.562 12.172V16.172C171.598 16.172 173.127 16.9484 173.863 17.9089L177.037 15.4751ZM168.562 12.172C164.991 12.172 161.937 13.0446 159.991 15.3021L163.021 17.9139C163.875 16.9234 165.525 16.172 168.562 16.172V12.172ZM159.988 15.3064C158.182 17.4133 157.49 20.5184 157.49 24.168H161.49C161.49 20.8736 162.143 18.9387 163.025 17.9096L159.988 15.3064ZM157.49 24.168V44.412H161.49V24.168H157.49ZM157.49 44.412C157.49 48.0707 158.185 51.1804 159.965 53.3311L163.047 50.7809C162.139 49.6836 161.49 47.6973 161.49 44.412H157.49ZM160.014 53.388C161.965 55.573 165.01 56.408 168.562 56.408V52.408C165.506 52.408 163.847 51.675 162.998 50.724L160.014 53.388ZM168.562 56.408C172.094 56.408 175.143 55.5814 176.996 53.3255L173.905 50.7865C173.182 51.6666 171.638 52.408 168.562 52.408V56.408ZM176.991 53.3311C178.771 51.1804 179.466 48.0707 179.466 44.412H175.466C175.466 47.6973 174.817 49.6836 173.909 50.7809L176.991 53.3311ZM179.466 44.412V43.068H175.466V44.412H179.466ZM179.466 43.068C179.466 42.9347 179.483 42.8995 179.474 42.9287C179.461 42.9676 179.419 43.0619 179.321 43.1592C179.224 43.2565 179.13 43.2986 179.091 43.3116C179.062 43.3214 179.097 43.304 179.23 43.304V39.304C178.334 39.304 177.294 39.5294 176.493 40.3308C175.692 41.1321 175.466 42.1717 175.466 43.068H179.466ZM179.23 43.304H192.922V39.304H179.23V43.304ZM192.922 43.304C193.033 43.304 193.046 43.3192 192.996 43.302C192.937 43.281 192.833 43.2282 192.734 43.1243C192.637 43.0225 192.6 42.9298 192.591 42.9014C192.585 42.8815 192.602 42.9265 192.602 43.068H196.602C196.602 42.1954 196.396 41.1696 195.63 40.3657C194.847 39.5435 193.816 39.304 192.922 39.304V43.304ZM192.602 43.068V44.58H196.602V43.068H192.602ZM219.817 27.36H217.817V29.36H219.817V27.36ZM219.817 40.632V38.632H217.817V40.632H219.817ZM219.817 52.644H217.817V54.644H219.817V52.644ZM203.941 65.26C203.799 65.26 203.754 65.2424 203.774 65.2488C203.802 65.2578 203.895 65.2948 203.997 65.3917C204.101 65.4907 204.154 65.5944 204.175 65.6543C204.192 65.7035 204.177 65.6906 204.177 65.58H200.177C200.177 66.4738 200.416 67.5053 201.238 68.2883C202.042 69.0539 203.068 69.26 203.941 69.26V65.26ZM204.177 65.58V20.136H200.177V65.58H204.177ZM204.177 20.136C204.177 20.0167 204.192 19.9937 204.179 20.0335C204.162 20.0829 204.115 20.1859 204.011 20.2902C203.906 20.3945 203.803 20.4419 203.754 20.4584C203.714 20.4716 203.737 20.456 203.857 20.456V16.456C202.988 16.456 201.97 16.6744 201.182 17.4618C200.395 18.2491 200.177 19.2677 200.177 20.136H204.177ZM203.857 20.456H218.053V16.456H203.857V20.456ZM218.053 20.456C218.194 20.456 218.239 20.4736 218.219 20.4672C218.191 20.4582 218.098 20.4212 217.996 20.3243C217.892 20.2253 217.84 20.1215 217.819 20.0617C217.801 20.0125 217.817 20.0254 217.817 20.136H221.817C221.817 19.2422 221.577 18.2107 220.755 17.4277C219.951 16.6621 218.925 16.456 218.053 16.456V20.456ZM217.817 20.136V27.36H221.817V20.136H217.817ZM219.817 29.36H237.961V25.36H219.817V29.36ZM237.961 29.36C238.057 29.36 238.057 29.3733 237.997 29.3522C237.926 29.3273 237.813 29.2687 237.708 29.1575C237.489 28.9275 237.557 28.7634 237.557 29.04H241.557C241.557 28.1966 241.358 27.1925 240.608 26.4025C239.839 25.5933 238.828 25.36 237.961 25.36V29.36ZM237.557 29.04V38.868H241.557V29.04H237.557ZM237.557 38.868C237.557 39.0176 237.539 39.0725 237.542 39.0623C237.547 39.0448 237.579 38.9547 237.674 38.8492C237.774 38.7393 237.886 38.675 237.967 38.6451C238.037 38.6194 238.048 38.632 237.961 38.632V42.632C238.855 42.632 239.878 42.3756 240.641 41.5328C241.369 40.7281 241.557 39.7176 241.557 38.868H237.557ZM237.961 38.632H219.817V42.632H237.961V38.632ZM217.817 40.632V52.644H221.817V40.632H217.817ZM219.817 54.644H241.741V50.644H219.817V54.644ZM241.741 54.644C241.837 54.644 241.837 54.6573 241.777 54.6362C241.706 54.6113 241.593 54.5527 241.488 54.4415C241.269 54.2115 241.337 54.0474 241.337 54.324H245.337C245.337 53.4806 245.138 52.4765 244.388 51.6865C243.619 50.8773 242.608 50.644 241.741 50.644V54.644ZM241.337 54.324V65.496H245.337V54.324H241.337ZM241.337 65.496C241.337 65.6456 241.319 65.7005 241.322 65.6903C241.327 65.6729 241.359 65.5827 241.454 65.4772C241.554 65.3673 241.666 65.303 241.747 65.2731C241.817 65.2474 241.828 65.26 241.741 65.26V69.26C242.635 69.26 243.658 69.0036 244.421 68.1608C245.149 67.3561 245.337 66.3456 245.337 65.496H241.337ZM241.741 65.26H203.941V69.26H241.741V65.26ZM202.177 13.936C202.035 13.936 201.99 13.9184 202.01 13.9248C202.038 13.9338 202.131 13.9708 202.233 14.0677C202.337 14.1667 202.39 14.2704 202.411 14.3303C202.428 14.3795 202.413 14.3666 202.413 14.256H198.413C198.413 15.1498 198.652 16.1813 199.474 16.9643C200.278 17.7299 201.304 17.936 202.177 17.936V13.936ZM202.413 14.256V2.99999H198.413V14.256H202.413ZM202.413 2.99999C202.413 2.88937 202.428 2.87654 202.411 2.9257C202.39 2.98555 202.337 3.08932 202.233 3.18827C202.131 3.28522 202.038 3.32222 202.01 3.33125C201.99 3.33756 202.035 3.32 202.177 3.32V-0.680003C201.304 -0.680003 200.278 -0.473908 199.474 0.29172C198.652 1.07473 198.413 2.10615 198.413 2.99999H202.413ZM202.177 3.32H241.153V-0.680003H202.177V3.32ZM241.153 3.32C241.272 3.32 241.295 3.33561 241.255 3.32236C241.206 3.30589 241.103 3.25854 240.998 3.15421C240.894 3.04989 240.847 2.94686 240.83 2.89745C240.817 2.85773 240.833 2.88069 240.833 2.99999H244.833C244.833 2.1317 244.614 1.11314 243.827 0.325781C243.039 -0.461577 242.021 -0.680003 241.153 -0.680003V3.32ZM240.833 2.99999V14.172H244.833V2.99999H240.833ZM240.833 14.172C240.833 14.3135 240.815 14.3585 240.821 14.3386C240.83 14.3102 240.867 14.2175 240.964 14.1157C241.063 14.0118 241.167 13.959 241.227 13.938C241.276 13.9208 241.263 13.936 241.153 13.936V17.936C242.046 17.936 243.078 17.6965 243.861 16.8743C244.626 16.0704 244.833 15.0446 244.833 14.172H240.833ZM241.153 13.936H202.177V17.936H241.153V13.936ZM288.742 20.388H290.742V16.7315L287.664 18.7039L288.742 20.388ZM283.367 23.832L282.288 22.1479L282.245 22.1752L282.204 22.2045L283.367 23.832ZM281.099 23.328L279.409 24.3991L279.472 24.4981L279.546 24.5892L281.099 23.328ZM274.547 12.996L276.236 11.9249L276.209 11.8831L276.18 11.8426L274.547 12.996ZM274.883 10.728L275.943 12.424L275.965 12.4099L275.987 12.3951L274.883 10.728ZM289.078 1.32L288.018 -0.376L287.996 -0.361865L287.974 -0.347133L289.078 1.32ZM303.962 65.496C303.962 65.6375 303.945 65.6825 303.951 65.6626C303.96 65.6342 303.997 65.5415 304.094 65.4397C304.193 65.3358 304.297 65.283 304.357 65.262C304.406 65.2448 304.393 65.26 304.283 65.26V69.26C305.176 69.26 306.208 69.0205 306.991 68.1983C307.756 67.3944 307.962 66.3686 307.962 65.496H303.962ZM304.283 65.26H290.423V69.26H304.283V65.26ZM290.423 65.26C290.312 65.26 290.299 65.2448 290.348 65.262C290.408 65.283 290.512 65.3358 290.611 65.4397C290.708 65.5415 290.745 65.6342 290.754 65.6626C290.76 65.6825 290.742 65.6375 290.742 65.496H286.742C286.742 66.3686 286.949 67.3944 287.714 68.1983C288.497 69.0205 289.529 69.26 290.423 69.26V65.26ZM290.742 65.496V20.388H286.742V65.496H290.742ZM287.664 18.7039L282.288 22.1479L284.445 25.5161L289.821 22.0721L287.664 18.7039ZM282.204 22.2045C282.168 22.2302 282.197 22.201 282.29 22.1773C282.393 22.1511 282.52 22.1458 282.645 22.1736C282.763 22.1997 282.82 22.2416 282.815 22.2381C282.806 22.2319 282.749 22.1873 282.651 22.0668L279.546 24.5892C280.061 25.2224 280.79 25.8588 281.778 26.0784C282.84 26.3145 283.796 25.9827 284.529 25.4595L282.204 22.2045ZM282.788 22.2569L276.236 11.9249L272.857 14.0671L279.409 24.3991L282.788 22.2569ZM276.18 11.8426C276.095 11.7217 276.083 11.6737 276.09 11.6956C276.1 11.7256 276.13 11.8401 276.105 12.0081C276.079 12.183 276.008 12.3193 275.945 12.4009C275.892 12.4709 275.868 12.4703 275.943 12.424L273.823 9.032C273.077 9.49822 272.319 10.2667 272.148 11.4219C271.985 12.5196 272.432 13.4682 272.913 14.1494L276.18 11.8426ZM275.987 12.3951L290.183 2.98713L287.974 -0.347133L273.778 9.06087L275.987 12.3951ZM290.138 3.01599C290.249 2.94676 290.382 2.9 290.591 2.9V-1.1C289.679 -1.1 288.804 -0.866767 288.018 -0.376L290.138 3.01599ZM290.591 2.9H304.199V-1.1H290.591V2.9ZM304.199 2.9C304.348 2.9 304.403 2.91764 304.393 2.91456C304.375 2.90931 304.285 2.87752 304.18 2.78207C304.07 2.68269 304.005 2.57032 303.976 2.48916C303.95 2.41952 303.962 2.40905 303.962 2.496H307.962C307.962 1.6012 307.706 0.578393 306.863 -0.184075C306.059 -0.91215 305.048 -1.1 304.199 -1.1V2.9ZM303.962 2.496V65.496H307.962V2.496H303.962ZM349.045 53.904L349.832 55.7423L349.887 55.7191L349.939 55.6929L349.045 53.904ZM350.809 52.392L349.191 51.2157L349.155 51.2659L349.121 51.3182L350.809 52.392ZM351.649 50.292L349.693 49.8729L349.679 49.9406L349.669 50.0092L351.649 50.292ZM351.901 42.312H353.901V38.1507L350.651 40.7503L351.901 42.312ZM347.449 44.412L347.92 46.3557L347.947 46.349L347.975 46.3415L347.449 44.412ZM333.925 43.824L333.182 45.681L333.21 45.692L333.237 45.7022L333.925 43.824ZM328.129 39.96L326.667 41.3246L326.678 41.3374L326.691 41.35L328.129 39.96ZM324.433 33.828L326.307 33.1305L324.433 33.828ZM324.769 11.148L322.964 10.2865L322.956 10.3034L322.948 10.3204L324.769 11.148ZM329.557 5.016L330.811 6.57351L330.824 6.56308L330.837 6.55244L329.557 5.016ZM336.613 1.32L337.173 3.24L337.185 3.23628L337.198 3.2324L336.613 1.32ZM354.505 1.152L353.992 3.08512V3.08512L354.505 1.152ZM361.561 4.68L360.285 6.22004L360.298 6.231L360.311 6.24174L361.561 4.68ZM366.097 10.812L364.254 11.5899L364.257 11.5974L364.261 11.6049L366.097 10.812ZM366.013 57.432L364.192 56.6044L364.184 56.6217L364.177 56.6391L366.013 57.432ZM361.561 63.648L362.859 65.1697L362.871 65.1588L362.884 65.1477L361.561 63.648ZM354.757 67.26L354.186 65.3432L354.167 65.3488L354.149 65.3547L354.757 67.26ZM337.201 67.512L337.686 65.5717L337.667 65.5669L337.647 65.5625L337.201 67.512ZM330.313 64.572L329.128 66.1833L329.143 66.1948L329.159 66.2059L330.313 64.572ZM325.861 59.28L324.063 60.1559L324.067 60.1652L324.072 60.1744L325.861 59.28ZM324.265 50.628L322.267 50.5281L322.265 50.578V50.628H324.265ZM341.233 53.316L339.818 54.7302L339.869 54.7807L339.923 54.8274L341.233 53.316ZM340.561 29.712L339.146 31.1262V31.1262L340.561 29.712ZM348.625 30.972L349.088 32.9176L349.12 32.9101L349.151 32.9015L348.625 30.972ZM351.901 29.292L353.172 30.8359L353.901 30.2358V29.292H351.901ZM350.389 15.516L348.834 16.7744L348.867 16.8151L348.902 16.8539L350.389 15.516ZM342.241 14.34L342.983 16.197L343.036 16.1761L343.086 16.1524L342.241 14.34ZM340.225 15.768L338.677 14.5015L338.677 14.5015L340.225 15.768ZM339.133 17.868L337.21 17.3186L337.191 17.3832L337.177 17.4489L339.133 17.868ZM345.937 56.408C347.371 56.408 348.706 56.2251 349.832 55.7423L348.257 52.0657C347.815 52.2549 347.079 52.408 345.937 52.408V56.408ZM349.939 55.6929C350.982 55.1714 351.874 54.4438 352.496 53.4658L349.121 51.3182C348.96 51.5722 348.675 51.8526 348.15 52.1151L349.939 55.6929ZM352.426 53.5683C353.074 52.6779 353.472 51.6685 353.629 50.5748L349.669 50.0092C349.601 50.4835 349.44 50.8741 349.191 51.2157L352.426 53.5683ZM353.604 50.7111C353.805 49.7743 353.901 48.7927 353.901 47.772H349.901C349.901 48.5433 349.828 49.2417 349.693 49.8729L353.604 50.7111ZM353.901 47.772V42.312H349.901V47.772H353.901ZM350.651 40.7503C349.803 41.4286 348.591 42.0275 346.922 42.4825L347.975 46.3415C350.003 45.7885 351.758 44.9874 353.15 43.8737L350.651 40.7503ZM346.977 42.4683C345.305 42.8739 343.449 43.084 341.401 43.084V47.084C343.72 47.084 345.897 46.8461 347.92 46.3557L346.977 42.4683ZM341.401 43.084C338.924 43.084 336.667 42.6976 334.612 41.9458L333.237 45.7022C335.774 46.6304 338.501 47.084 341.401 47.084V43.084ZM334.667 41.967C332.681 41.1724 330.988 40.0403 329.567 38.57L326.691 41.35C328.517 43.2397 330.689 44.6836 333.182 45.681L334.667 41.967ZM329.591 38.5954C328.223 37.1299 327.122 35.3203 326.307 33.1305L322.558 34.5255C323.535 37.1517 324.898 39.4301 326.667 41.3246L329.591 38.5954ZM326.307 33.1305C325.51 30.9888 325.089 28.4607 325.089 25.512H321.089C321.089 28.8353 321.563 31.8512 322.558 34.5255L326.307 33.1305ZM325.089 25.512V19.8H321.089V25.512H325.089ZM325.089 19.8C325.089 16.7199 325.611 14.1289 326.589 11.9756L322.948 10.3204C321.687 13.0951 321.089 16.2721 321.089 19.8H325.089ZM326.574 12.0095C327.628 9.80061 329.041 7.99938 330.811 6.57351L328.302 3.45849C326.04 5.28062 324.261 7.56738 322.964 10.2865L326.574 12.0095ZM330.837 6.55244C332.628 5.06003 334.731 3.95225 337.173 3.24L336.053 -0.600003C333.119 0.255743 330.517 1.61196 328.276 3.47956L330.837 6.55244ZM337.198 3.2324C339.736 2.45559 342.477 2.06 345.433 2.06V-1.94C342.117 -1.94 338.978 -1.4956 336.027 -0.592403L337.198 3.2324ZM345.433 2.06C348.591 2.06 351.44 2.40807 353.992 3.08512L355.018 -0.781124C352.082 -1.56007 348.882 -1.94 345.433 -1.94V2.06ZM353.992 3.08512C356.488 3.74749 358.572 4.80106 360.285 6.22004L362.837 3.13996C360.629 1.31093 358.009 0.0125008 355.018 -0.781125L353.992 3.08512ZM360.311 6.24174C361.989 7.58356 363.308 9.34828 364.254 11.5899L367.939 10.0341C366.758 7.23572 365.053 4.91244 362.81 3.11826L360.311 6.24174ZM364.261 11.6049C365.19 13.7566 365.693 16.4401 365.693 19.716H369.693C369.693 16.0479 369.132 12.7954 367.933 10.0191L364.261 11.6049ZM365.693 19.716V48.78H369.693V19.716H365.693ZM365.693 48.78C365.693 51.8601 365.171 54.4511 364.192 56.6044L367.833 58.2596C369.095 55.4849 369.693 52.3079 369.693 48.78H365.693ZM364.177 56.6391C363.223 58.8484 361.908 60.6743 360.237 62.1483L362.884 65.1477C365.021 63.2617 366.675 60.9436 367.849 58.2249L364.177 56.6391ZM360.263 62.1263C358.591 63.5524 356.577 64.631 354.186 65.3432L355.328 69.1768C358.201 68.321 360.723 66.9916 362.859 65.1697L360.263 62.1263ZM354.149 65.3547C351.734 66.1252 349.086 66.52 346.189 66.52V70.52C349.452 70.52 352.515 70.0748 355.365 69.1653L354.149 65.3547ZM346.189 66.52C343.018 66.52 340.188 66.1973 337.686 65.5717L336.716 69.4523C339.589 70.1707 342.751 70.52 346.189 70.52V66.52ZM337.647 65.5625C335.168 64.9942 333.122 64.107 331.466 62.9381L329.159 66.2059C331.311 67.725 333.858 68.7978 336.754 69.4615L337.647 65.5625ZM331.497 62.9607C329.851 61.7497 328.573 60.2321 327.65 58.3856L324.072 60.1744C325.277 62.5839 326.967 64.5943 329.128 66.1833L331.497 62.9607ZM327.659 58.4041C326.758 56.556 326.265 54.2394 326.265 51.384H322.265C322.265 54.6886 322.835 57.636 324.063 60.1559L327.659 58.4041ZM326.265 51.384V50.628H322.265V51.384H326.265ZM326.262 50.7279C326.269 50.6004 326.286 50.5616 326.279 50.5815C326.269 50.6087 326.231 50.6917 326.141 50.7822C326.049 50.8746 325.952 50.9233 325.893 50.9437C325.843 50.961 325.85 50.948 325.945 50.948V46.948C325.07 46.948 324.082 47.1841 323.312 47.9538C322.56 48.7067 322.31 49.678 322.267 50.5281L326.262 50.7279ZM325.945 50.948H338.377V46.948H325.945V50.948ZM338.377 50.948C338.487 50.948 338.5 50.9632 338.451 50.946C338.391 50.925 338.287 50.8722 338.188 50.7683C338.091 50.6665 338.054 50.5738 338.045 50.5454C338.039 50.5255 338.057 50.5705 338.057 50.712H342.057C342.057 49.8394 341.851 48.8136 341.085 48.0097C340.302 47.1875 339.271 46.948 338.377 46.948V50.948ZM338.057 50.712C338.057 52.2819 338.726 53.6379 339.818 54.7302L342.647 51.9018C342.171 51.4261 342.057 51.0461 342.057 50.712H338.057ZM339.923 54.8274C341.355 56.0687 343.589 56.408 345.937 56.408V52.408C343.693 52.408 342.79 52.0193 342.543 51.8046L339.923 54.8274ZM336.881 24.84C336.881 27.3107 337.537 29.5165 339.146 31.1262L341.975 28.2978C341.345 27.6675 340.881 26.6253 340.881 24.84H336.881ZM339.146 31.1262C340.726 32.7062 342.824 33.392 345.181 33.392V29.392C343.618 29.392 342.635 28.9578 341.975 28.2978L339.146 31.1262ZM345.181 33.392C346.468 33.392 347.772 33.2309 349.088 32.9176L348.161 29.0264C347.125 29.2731 346.133 29.392 345.181 29.392V33.392ZM349.151 32.9015C350.646 32.4938 351.994 31.8061 353.172 30.8359L350.629 27.7481C349.903 28.3459 349.067 28.7782 348.098 29.0425L349.151 32.9015ZM353.901 29.292V19.548H349.901V29.292H353.901ZM353.901 19.548C353.901 17.5079 353.228 15.6814 351.875 14.1781L348.902 16.8539C349.565 17.5906 349.901 18.4521 349.901 19.548H353.901ZM351.943 14.2576C350.441 12.4016 348.051 11.752 345.433 11.752V15.752C347.518 15.752 348.433 16.2784 348.834 16.7744L351.943 14.2576ZM345.433 11.752C343.959 11.752 342.582 11.9737 341.395 12.5276L343.086 16.1524C343.579 15.9223 344.33 15.752 345.433 15.752V11.752ZM341.498 12.483C340.387 12.9272 339.423 13.5898 338.677 14.5015L341.773 17.0345C342.035 16.7142 342.414 16.4248 342.983 16.197L341.498 12.483ZM338.677 14.5015C337.996 15.3337 337.507 16.2791 337.21 17.3186L341.056 18.4174C341.207 17.8889 341.445 17.4343 341.773 17.0345L338.677 14.5015ZM337.177 17.4489C336.976 18.3857 336.881 19.3673 336.881 20.388H340.881C340.881 19.6167 340.953 18.9183 341.088 18.2871L337.177 17.4489ZM336.881 20.388V24.84H340.881V20.388H336.881ZM391.791 28.536H389.791V33.0267L393.129 30.0226L391.791 28.536ZM396.243 26.1L396.875 27.9974L396.243 26.1ZM409.683 26.52L408.94 28.377L408.968 28.388L408.996 28.3982L409.683 26.52ZM415.479 30.3L414.017 31.6646L414.029 31.6774L414.041 31.69L415.479 30.3ZM419.259 36.516L417.379 37.1995L417.382 37.2065L417.384 37.2135L419.259 36.516ZM418.923 57.432L417.102 56.6044L418.923 57.432ZM414.303 63.648L415.579 65.188L415.592 65.1774L415.604 65.1665L414.303 63.648ZM407.331 67.26L406.771 65.34L406.747 65.347L406.723 65.3547L407.331 67.26ZM389.523 67.428L389.01 69.3611L389.02 69.3636L389.523 67.428ZM382.383 64.068L381.155 65.6467L381.169 65.6575L381.183 65.668L382.383 64.068ZM377.679 58.188L379.485 57.3281L377.679 58.188ZM377.595 11.148L375.774 10.3204L375.766 10.3377L375.759 10.3551L377.595 11.148ZM382.131 5.016L383.429 6.53767L383.441 6.52678L383.454 6.51567L382.131 5.016ZM388.935 1.32L389.506 3.23677L389.524 3.23122L389.543 3.22532L388.935 1.32ZM406.407 1.06799L405.922 3.00828L405.945 3.01414L405.969 3.01943L406.407 1.06799ZM413.379 4.26L412.135 5.82622L412.149 5.8376L412.164 5.84871L413.379 4.26ZM417.831 10.056L419.66 9.24767V9.24767L417.831 10.056ZM419.427 19.632L421.424 19.7319L421.427 19.682V19.632H419.427ZM403.383 17.112L401.485 17.7445L401.497 17.7796L401.51 17.8142L403.383 17.112ZM402.459 15.768L401.045 17.1822L401.092 17.2293L401.142 17.2731L402.459 15.768ZM400.611 14.676L399.773 16.4919L399.854 16.5294L399.938 16.5595L400.611 14.676ZM394.647 14.76L395.435 16.5983L395.489 16.5751L395.541 16.5489L394.647 14.76ZM392.799 16.188L391.181 15.0117L391.145 15.0619L391.111 15.1142L392.799 16.188ZM391.959 18.288L390.003 17.8689L389.989 17.9366L389.979 18.0052L391.959 18.288ZM403.131 40.548L401.717 41.9622V41.9622L403.131 40.548ZM394.983 39.456L395.509 41.3855L395.549 41.3745L395.589 41.3619L394.983 39.456ZM391.791 41.22L390.423 39.7609L389.791 40.3535V41.22H391.791ZM393.219 53.232L391.695 54.5273L391.73 54.5684L391.767 54.6075L393.219 53.232ZM403.467 52.896L405.109 54.0381L405.12 54.0219L405.131 54.0054L403.467 52.896ZM393.129 30.0226C393.994 29.244 395.215 28.5508 396.875 27.9974L395.61 24.2026C393.575 24.8812 391.828 25.812 390.453 27.0494L393.129 30.0226ZM396.875 27.9974C398.496 27.457 400.296 27.176 402.291 27.176V23.176C399.918 23.176 397.685 23.511 395.61 24.2026L396.875 27.9974ZM402.291 27.176C404.753 27.176 406.962 27.5857 408.94 28.377L410.426 24.663C407.924 23.6623 405.204 23.176 402.291 23.176V27.176ZM408.996 28.3982C411.016 29.1374 412.677 30.2289 414.017 31.6646L416.941 28.9354C415.145 27.0111 412.942 25.5826 410.37 24.6418L408.996 28.3982ZM414.041 31.69C415.447 33.1448 416.567 34.9671 417.379 37.1995L421.138 35.8325C420.158 33.1369 418.759 30.8152 416.917 28.91L414.041 31.69ZM417.384 37.2135C418.183 39.3589 418.603 41.86 418.603 44.748H422.603C422.603 41.476 422.127 38.4891 421.133 35.8185L417.384 37.2135ZM418.603 44.748V48.78H422.603V44.748H418.603ZM418.603 48.78C418.603 51.8601 418.081 54.4511 417.102 56.6044L420.744 58.2596C422.005 55.4849 422.603 52.3079 422.603 48.78H418.603ZM417.102 56.6044C416.097 58.8162 414.729 60.6484 413.001 62.1295L415.604 65.1665C417.796 63.2876 419.509 60.9758 420.744 58.2596L417.102 56.6044ZM413.027 62.108C411.297 63.541 409.223 64.6248 406.771 65.34L407.891 69.18C410.815 68.3272 413.388 67.003 415.579 65.188L413.027 62.108ZM406.723 65.3547C404.312 66.1241 401.636 66.52 398.679 66.52V70.52C401.994 70.52 405.086 70.0759 407.939 69.1653L406.723 65.3547ZM398.679 66.52C395.521 66.52 392.64 66.1721 390.026 65.4924L389.02 69.3636C392.005 70.1399 395.229 70.52 398.679 70.52V66.52ZM390.036 65.4949C387.509 64.8245 385.369 63.8076 383.583 62.468L381.183 65.668C383.429 67.3524 386.049 68.5755 389.01 69.3611L390.036 65.4949ZM383.611 62.4893C381.846 61.1165 380.473 59.4046 379.485 57.3281L375.873 59.0479C377.124 61.6754 378.888 63.8835 381.155 65.6467L383.611 62.4893ZM379.485 57.3281C378.522 55.3068 377.999 52.7878 377.999 49.704H373.999C373.999 53.2281 374.596 56.3652 375.873 59.0479L379.485 57.3281ZM377.999 49.704V19.8H373.999V49.704H377.999ZM377.999 19.8C377.999 16.7074 378.497 14.1038 379.431 11.9409L375.759 10.3551C374.565 13.1202 373.999 16.2846 373.999 19.8H377.999ZM379.416 11.9756C380.424 9.75637 381.766 7.95627 383.429 6.53767L380.833 3.49433C378.688 5.32372 377.005 7.61162 375.774 10.3204L379.416 11.9756ZM383.454 6.51567C385.123 5.0429 387.129 3.9448 389.506 3.23677L388.364 -0.596775C385.477 0.263192 382.946 1.62909 380.808 3.51632L383.454 6.51567ZM389.543 3.22532C391.957 2.45481 394.606 2.06 397.503 2.06V-1.94C394.24 -1.94 391.176 -1.49481 388.327 -0.585322L389.543 3.22532ZM397.503 2.06C400.615 2.06 403.417 2.38205 405.922 3.00828L406.892 -0.872291C404.021 -1.59006 400.887 -1.94 397.503 -1.94V2.06ZM405.969 3.01943C408.465 3.57972 410.501 4.52899 412.135 5.82622L414.623 2.69378C412.448 0.967011 409.837 -0.211731 406.845 -0.883437L405.969 3.01943ZM412.164 5.84871C413.775 7.08078 415.06 8.73303 416.001 10.8643L419.66 9.24767C418.474 6.56296 416.791 4.35122 414.594 2.67128L412.164 5.84871ZM416.001 10.8643C416.923 12.9503 417.427 15.5979 417.427 18.876H421.427C421.427 15.2101 420.866 11.9777 419.66 9.24767L416.001 10.8643ZM417.427 18.876V19.632H421.427V18.876H417.427ZM417.429 19.5321C417.423 19.6596 417.405 19.6984 417.413 19.6785C417.423 19.6513 417.46 19.5683 417.551 19.4778C417.643 19.3854 417.739 19.3367 417.798 19.3163C417.848 19.299 417.842 19.312 417.747 19.312V23.312C418.622 23.312 419.609 23.0759 420.379 22.3062C421.132 21.5533 421.382 20.582 421.424 19.7319L417.429 19.5321ZM417.747 19.312H405.315V23.312H417.747V19.312ZM405.315 19.312C405.204 19.312 405.191 19.2968 405.241 19.314C405.3 19.335 405.404 19.3878 405.503 19.4917C405.6 19.5935 405.637 19.6862 405.646 19.7146C405.652 19.7345 405.635 19.6895 405.635 19.548H401.635C401.635 20.4206 401.841 21.4464 402.607 22.2503C403.39 23.0725 404.421 23.312 405.315 23.312V19.312ZM405.635 19.548V18.288H401.635V19.548H405.635ZM405.635 18.288C405.635 17.6338 405.475 16.9948 405.255 16.4098L401.51 17.8142C401.627 18.1252 401.635 18.2702 401.635 18.288H405.635ZM405.28 16.4795C404.987 15.5989 404.458 14.8601 403.776 14.2628L401.142 17.2731C401.355 17.4599 401.443 17.6171 401.485 17.7445L405.28 16.4795ZM403.873 14.3538C403.161 13.6414 402.263 13.1422 401.283 12.7925L399.938 16.5595C400.527 16.7698 400.861 16.9986 401.045 17.1822L403.873 14.3538ZM401.449 12.8601C400.365 12.3598 399.096 12.172 397.755 12.172V16.172C398.766 16.172 399.401 16.3202 399.773 16.4919L401.449 12.8601ZM397.755 12.172C396.291 12.172 394.914 12.3906 393.752 12.9711L395.541 16.5489C395.948 16.3454 396.643 16.172 397.755 16.172V12.172ZM393.859 12.9217C392.785 13.3822 391.866 14.0705 391.181 15.0117L394.416 17.3643C394.628 17.0735 394.941 16.8098 395.435 16.5983L393.859 12.9217ZM391.111 15.1142C390.58 15.9496 390.216 16.8753 390.003 17.8689L393.914 18.7071C394.038 18.1327 394.234 17.6584 394.486 17.2617L391.111 15.1142ZM389.979 18.0052C389.852 18.8941 389.791 19.8294 389.791 20.808H393.791C393.791 19.9946 393.842 19.2499 393.939 18.5708L389.979 18.0052ZM389.791 20.808V28.536H393.791V20.808H389.791ZM406.811 45.42C406.811 42.9493 406.155 40.7435 404.545 39.1338L401.717 41.9622C402.347 42.5925 402.811 43.6347 402.811 45.42H406.811ZM404.545 39.1338C402.965 37.5538 400.868 36.868 398.511 36.868V40.868C400.074 40.868 401.057 41.3022 401.717 41.9622L404.545 39.1338ZM398.511 36.868C397.156 36.868 395.775 37.1052 394.376 37.5501L395.589 41.3619C396.655 41.0228 397.626 40.868 398.511 40.868V36.868ZM394.457 37.5265C392.923 37.9448 391.567 38.6888 390.423 39.7609L393.159 42.6791C393.807 42.0712 394.579 41.6392 395.509 41.3855L394.457 37.5265ZM389.791 41.22V49.872H393.791V41.22H389.791ZM389.791 49.872C389.791 51.598 390.533 53.1603 391.695 54.5273L394.743 51.9367C394.001 51.0637 393.791 50.386 393.791 49.872H389.791ZM391.767 54.6075C393.328 56.2553 395.679 56.828 398.259 56.828V52.828C396.134 52.828 395.126 52.3367 394.671 51.8565L391.767 54.6075ZM398.259 56.828C401.065 56.828 403.649 56.137 405.109 54.0381L401.825 51.7539C401.493 52.231 400.605 52.828 398.259 52.828V56.828ZM405.131 54.0054C406.27 52.2974 406.811 50.334 406.811 48.192H402.811C402.811 49.634 402.456 50.8066 401.803 51.7866L405.131 54.0054ZM406.811 48.192V45.42H402.811V48.192H406.811ZM447.473 20.388H449.473V16.7315L446.394 18.7039L447.473 20.388ZM442.097 23.832L441.018 22.1479L440.976 22.1752L440.934 22.2045L442.097 23.832ZM439.829 23.328L438.14 24.3991L438.203 24.4981L438.277 24.5892L439.829 23.328ZM433.277 12.996L434.966 11.9249L434.939 11.8831L434.911 11.8426L433.277 12.996ZM433.613 10.728L434.673 12.424L434.696 12.4099L434.718 12.3951L433.613 10.728ZM447.809 1.32L446.749 -0.376L446.726 -0.361865L446.704 -0.347133L447.809 1.32ZM462.693 65.496C462.693 65.6375 462.675 65.6825 462.682 65.6626C462.691 65.6342 462.728 65.5415 462.825 65.4397C462.924 65.3358 463.027 65.283 463.087 65.262C463.136 65.2448 463.124 65.26 463.013 65.26V69.26C463.907 69.26 464.938 69.0205 465.721 68.1983C466.487 67.3944 466.693 66.3686 466.693 65.496H462.693ZM463.013 65.26H449.153V69.26H463.013V65.26ZM449.153 65.26C449.042 65.26 449.03 65.2448 449.079 65.262C449.139 65.283 449.242 65.3358 449.341 65.4397C449.438 65.5415 449.475 65.6342 449.484 65.6626C449.491 65.6825 449.473 65.6375 449.473 65.496H445.473C445.473 66.3686 445.679 67.3944 446.445 68.1983C447.228 69.0205 448.259 69.26 449.153 69.26V65.26ZM449.473 65.496V20.388H445.473V65.496H449.473ZM446.394 18.7039L441.018 22.1479L443.176 25.5161L448.552 22.0721L446.394 18.7039ZM440.934 22.2045C440.899 22.2302 440.928 22.201 441.021 22.1773C441.124 22.1511 441.251 22.1458 441.376 22.1736C441.493 22.1997 441.55 22.2416 441.546 22.2381C441.537 22.2319 441.479 22.1873 441.381 22.0668L438.277 24.5892C438.791 25.2224 439.52 25.8588 440.508 26.0784C441.571 26.3145 442.527 25.9827 443.259 25.4595L440.934 22.2045ZM441.518 22.2569L434.966 11.9249L431.588 14.0671L438.14 24.3991L441.518 22.2569ZM434.911 11.8426C434.826 11.7217 434.813 11.6737 434.82 11.6956C434.83 11.7256 434.86 11.8401 434.835 12.0081C434.809 12.183 434.738 12.3193 434.676 12.4009C434.622 12.4709 434.599 12.4703 434.673 12.424L432.553 9.032C431.807 9.49822 431.05 10.2667 430.879 11.4219C430.716 12.5196 431.162 13.4682 431.643 14.1494L434.911 11.8426ZM434.718 12.3951L448.914 2.98713L446.704 -0.347133L432.508 9.06087L434.718 12.3951ZM448.869 3.01599C448.98 2.94676 449.112 2.9 449.321 2.9V-1.1C448.41 -1.1 447.534 -0.866767 446.749 -0.376L448.869 3.01599ZM449.321 2.9H462.929V-1.1H449.321V2.9ZM462.929 2.9C463.079 2.9 463.133 2.91764 463.123 2.91456C463.106 2.90931 463.016 2.87752 462.91 2.78207C462.8 2.68269 462.736 2.57032 462.706 2.48916C462.68 2.41952 462.693 2.40905 462.693 2.496H466.693C466.693 1.6012 466.437 0.578393 465.594 -0.184075C464.789 -0.91215 463.779 -1.1 462.929 -1.1V2.9ZM462.693 2.496V65.496H466.693V2.496H462.693Z" fill="#142247"/>
</svg>
