<svg width="233" height="54" viewBox="0 0 233 54" fill="none" xmlns="http://www.w3.org/2000/svg">
<g clip-path="url(#clip0_94_380)">
<path d="M1.54152 48.2326L1.5238 48.2414L0 53.8852H1.03654C1.07198 53.8587 1.71871 51.4828 1.72757 51.4563C1.72757 51.4828 2.02878 51.5005 2.02878 51.5005C4.34106 51.6771 5.45734 50.6968 5.71426 49.7164C5.83829 49.2483 5.78513 48.8597 5.55479 48.5594C5.21814 48.1266 4.54483 47.9058 3.54373 47.9058C2.79068 47.9058 2.06422 48.0294 1.54152 48.2326ZM3.3754 48.4534C3.99555 48.4534 4.38536 48.577 4.58027 48.8243C4.73973 49.0275 4.75745 49.3101 4.66 49.6987C4.40308 50.6438 3.56144 51.0677 2.15281 50.9617C2.15281 50.9617 1.83388 50.9352 1.82502 50.9352C1.86932 50.9352 2.51605 48.5417 2.51605 48.5417C2.51605 48.5594 3.3754 48.4534 3.3754 48.4534Z" fill="#787F84"/>
<path d="M6.24581 50.9441C5.97117 51.9686 6.03318 52.7812 6.44071 53.3111C6.79509 53.7704 7.39752 54 8.23029 54C9.9933 54 11.3133 52.896 11.836 50.9706C12.1107 49.9549 12.0398 49.1335 11.6323 48.6035C11.2779 48.1443 10.6843 47.9146 9.86041 47.9146C8.08855 47.9058 6.76851 49.0187 6.24581 50.9441ZM7.40638 52.9578C7.10516 52.5692 7.08744 51.9156 7.35322 50.9352C7.65444 49.8224 8.31003 48.4976 9.71866 48.4976C10.1528 48.4976 10.4717 48.63 10.6666 48.8773C11.0476 49.3719 10.9147 50.2552 10.7375 50.9087C10.2945 52.5427 9.52376 53.3376 8.38976 53.3376C7.93794 53.3464 7.61014 53.2139 7.40638 52.9578Z" fill="#787F84"/>
<path d="M17.7984 48.0118L17.0985 50.5731H14.2546L14.9811 48.0118H13.9268C13.8914 48.0383 12.3145 53.8852 12.3145 53.8852H13.3687C13.4041 53.8587 14.1483 51.1384 14.1483 51.1384H16.9922L16.2126 53.8852H17.2668C17.3022 53.8587 18.8792 48.0118 18.8792 48.0118H17.8249H17.7984Z" fill="#787F84"/>
<path d="M22.3698 48.0118L18.1882 53.8852H19.1538C19.1804 53.8675 20.403 52.1629 20.403 52.1629H22.9899C22.9899 52.1629 22.9899 52.1452 22.9899 52.1629C22.9988 52.3749 23.2025 53.8852 23.2025 53.8852H24.2922C24.3277 53.841 23.3354 48.0118 23.3354 48.0118H22.3875H22.3698ZM22.6355 48.7537L22.9102 51.6418C22.9102 51.6418 20.6776 51.6418 20.6688 51.6418L22.6355 48.7537Z" fill="#787F84"/>
<path d="M29.7673 53.8852H30.6887C30.7241 53.8587 32.3011 48.0118 32.3011 48.0118H31.4151H31.3886L30.2811 52.0923C30.2811 52.0923 30.1571 52.684 30.1482 52.7193L27.9157 48.003H26.8083C26.7729 48.0295 25.1959 53.8764 25.1959 53.8764H26.0907C26.1261 53.8499 27.2778 49.6281 27.2778 49.6281C27.2778 49.6281 27.4284 48.9568 27.4373 48.9215L29.7673 53.8852Z" fill="#787F84"/>
<path d="M32.6466 50.8999C32.3897 51.8273 32.4783 52.6045 32.9035 53.1433C33.3287 53.6997 34.0818 53.9912 35.0652 53.9912C36.0574 53.9912 36.5978 53.8587 37.094 53.6644C37.1205 53.6379 37.9356 50.5731 37.9356 50.5731H35.6145C35.579 50.5996 35.4461 51.0942 35.4461 51.0942C35.4461 51.0942 36.775 51.0942 36.7839 51.0942C36.7307 51.1031 36.1549 53.2581 36.1549 53.2581C35.9511 53.3199 35.6233 53.3641 35.1981 53.3641C34.6399 53.3641 34.197 53.1786 33.9312 52.8253C33.6034 52.4014 33.5414 51.7566 33.754 50.9706C34.1881 49.3631 35.1892 48.5152 36.651 48.5152C37.3952 48.5152 37.785 48.6565 37.9445 48.7449C37.9887 48.736 38.4229 48.2503 38.4229 48.2503C38.1571 48.0559 37.661 47.8793 36.6864 47.8793C35.074 47.9058 33.2047 48.8332 32.6466 50.8999Z" fill="#787F84"/>
<path d="M47.3265 48.0118L46.1925 52.1894C45.9798 52.9666 45.1736 53.3199 44.5181 53.3199C44.0928 53.3199 43.7473 53.1874 43.5612 52.949C43.4106 52.7547 43.3752 52.4985 43.4549 52.2159L44.5801 48.0206H43.5258C43.4904 48.0471 42.3564 52.2071 42.3564 52.2071C42.2412 52.6487 42.3032 53.0461 42.5513 53.3553C42.8791 53.7792 43.4992 54.0088 44.2966 54.0088C45.7229 54.0088 46.9101 53.2758 47.1936 52.2247L48.3276 48.0206H47.3619H47.3265V48.0118Z" fill="#787F84"/>
<path d="M54.3076 48.0118L53.2002 52.0923C53.2002 52.0923 53.0673 52.684 53.0584 52.7193C53.0496 52.6134 52.837 52.1099 52.837 52.1099L50.8259 48.003H49.7185C49.683 48.0295 48.1061 53.8764 48.1061 53.8764H48.992C49.0274 53.8499 50.1792 49.6281 50.1792 49.6281C50.1792 49.6281 50.3298 48.9568 50.3386 48.9215C50.3475 49.0275 50.5955 49.6193 50.5955 49.6193L52.6952 53.8764H53.6166C53.652 53.8499 55.229 48.003 55.229 48.003H54.343H54.3076V48.0118Z" fill="#787F84"/>
<path d="M56.6996 48.0118L55.1138 53.8852H56.1681C56.2035 53.8587 57.7805 48.0118 57.7805 48.0118H56.7262H56.6996Z" fill="#787F84"/>
<path d="M63.1315 48.0118L60.5711 52.1187C60.5711 52.1187 60.137 52.8607 60.1282 52.8783C60.1725 52.8607 60.1548 52.1364 60.1548 52.1364L59.8535 48.0118H58.7373C58.7018 48.0559 59.384 53.8852 59.384 53.8852H60.3054C60.3319 53.8675 64.1326 48.0118 64.1326 48.0118H63.1403H63.1315Z" fill="#787F84"/>
<path d="M65.0805 48.0118L63.4947 53.8852H67.0739C67.1093 53.8587 67.2511 53.3288 67.2511 53.3288H64.6996L65.3375 51.1295H67.57C67.6054 51.103 67.7472 50.5731 67.7472 50.5731H65.4438L66.0285 48.577H68.518C68.5534 48.5505 68.6951 48.0118 68.6951 48.0118H65.116H65.0805Z" fill="#787F84"/>
<path d="M69.6165 48.2238L69.5988 48.2326L68.075 53.8852H69.1204C69.1558 53.8587 69.8911 51.1737 69.8911 51.156C69.8911 51.2355 71.6187 53.8852 71.6187 53.8852H72.8059C72.8324 53.8322 71.034 51.2797 71.034 51.2797C72.4603 51.2974 73.5323 50.6791 73.7981 49.6899C73.9221 49.2306 73.869 48.8508 73.6475 48.5594C73.3197 48.1266 72.6287 47.9146 71.6099 47.9146C70.8834 47.9058 70.1303 48.0294 69.6165 48.2238ZM70.5999 48.5417C70.7948 48.4799 71.096 48.4446 71.4681 48.4446C72.0705 48.4446 72.4515 48.5594 72.6375 48.8067C72.797 49.0098 72.8147 49.3013 72.7084 49.7076C72.4781 50.5555 71.7339 50.9971 70.5467 50.9971C70.5467 50.9971 70.024 50.9529 69.9532 50.9529C69.9709 50.8646 70.5999 48.5417 70.5999 48.5417Z" fill="#787F84"/>
<path d="M74.6929 49.5751C74.498 50.3082 74.9055 50.8469 75.9155 51.1825C76.7748 51.4652 77.0583 51.7655 76.9254 52.2601C76.7483 52.9136 76.0838 53.3288 75.2333 53.3288C74.7372 53.3288 74.3208 53.2404 73.993 53.0638C73.9487 53.0726 73.5323 53.6202 73.5323 53.6202C73.9487 53.9029 74.4714 54 75.251 54C76.6242 54 77.7848 53.2758 78.0594 52.2424C78.1923 51.739 78.2012 51.0236 76.7482 50.5466C76.0484 50.317 75.6408 50.0609 75.7826 49.5221C75.9509 48.895 76.5179 48.5241 77.2975 48.5241C77.8468 48.5241 78.2366 48.6919 78.4138 48.789C78.4581 48.7802 78.839 48.2856 78.839 48.2856C78.5024 48.0294 77.962 47.9146 77.3241 47.9146C76.0661 47.9058 74.9587 48.6124 74.6929 49.5751Z" fill="#787F84"/>
<path d="M80.416 48.0118L78.8302 53.8852H79.8845C79.9199 53.8587 81.4968 48.0118 81.4968 48.0118H80.4426H80.416Z" fill="#787F84"/>
<path d="M82.2942 48.0118L82.1347 48.577H83.6939C83.6496 48.577 82.2233 53.8852 82.2233 53.8852H83.2776C83.313 53.8587 84.7482 48.577 84.7482 48.577H86.2366C86.272 48.5505 86.4138 48.0118 86.4138 48.0118H82.3119H82.2942Z" fill="#787F84"/>
<path d="M91.2155 48.0118L88.9121 50.6438C88.9121 50.6438 88.9121 50.6438 88.9121 50.635C88.9121 50.5113 88.1502 48.003 88.1502 48.003H87.0162C86.9808 48.056 88.1768 51.2885 88.1768 51.2885C88.1768 51.262 87.4769 53.8764 87.4769 53.8764H88.5312C88.5666 53.8499 89.2665 51.2885 89.2665 51.2885L92.2344 48.003H91.2333H91.2155V48.0118Z" fill="#787F84"/>
<path d="M98.5953 47.9058C96.8235 47.9058 95.5034 49.0098 94.9807 50.9352C94.7061 51.9598 94.7681 52.7723 95.1756 53.2934C95.53 53.7527 96.1324 53.9823 96.9652 53.9823C98.7371 53.9823 100.048 52.8783 100.571 50.9529C100.846 49.9372 100.775 49.1158 100.367 48.5859C100.013 48.1443 99.4193 47.9058 98.5953 47.9058ZM98.4536 48.4975C98.8877 48.4975 99.2066 48.63 99.4015 48.8773C99.7825 49.3719 99.6496 50.2552 99.4724 50.9087C99.0294 52.5427 98.2587 53.3376 97.1247 53.3376C96.6729 53.3376 96.3451 53.2051 96.1413 52.949C95.8401 52.5604 95.8312 51.9068 96.0881 50.9264C96.3894 49.8224 97.045 48.4975 98.4536 48.4975Z" fill="#787F84"/>
<path d="M102.361 48.0118L100.775 53.8852H101.829L102.609 51.1384H104.832C104.868 51.1119 105.009 50.5819 105.009 50.5819H102.724L103.3 48.577H105.771C105.807 48.5505 105.949 48.0118 105.949 48.0118H102.378H102.361Z" fill="#787F84"/>
<path d="M109.51 49.5751C109.315 50.3082 109.723 50.8469 110.733 51.1825C111.592 51.4652 111.867 51.7655 111.734 52.2601C111.557 52.9136 110.892 53.3288 110.042 53.3288C109.545 53.3288 109.129 53.2404 108.801 53.0638C108.757 53.0726 108.341 53.6202 108.341 53.6202C108.757 53.9029 109.28 54 110.059 54C111.432 54 112.593 53.2758 112.868 52.2424C113.001 51.739 113.018 51.0236 111.557 50.5466C110.857 50.317 110.449 50.0609 110.591 49.5221C110.759 48.895 111.326 48.5241 112.106 48.5241C112.655 48.5241 113.045 48.6919 113.222 48.789C113.266 48.7802 113.647 48.2856 113.647 48.2856C113.311 48.0294 112.779 47.9146 112.141 47.9146C110.874 47.9058 109.767 48.6124 109.51 49.5751Z" fill="#787F84"/>
<path d="M113.709 50.9441C113.461 51.8714 113.559 52.6928 113.984 53.2404C114.365 53.735 114.994 53.9912 115.791 53.9912C116.403 53.9912 116.987 53.8764 117.395 53.6644C117.413 53.6202 117.28 53.1345 117.28 53.1345C116.961 53.2228 116.615 53.3376 116.119 53.3376C115.605 53.3376 115.233 53.1786 114.994 52.8783C114.675 52.472 114.622 51.792 114.843 50.9706C115.26 49.4514 116.234 48.5417 117.448 48.5417C117.829 48.5417 118.157 48.6124 118.431 48.7625C118.476 48.7537 118.848 48.2944 118.848 48.2944C118.511 48.0206 118.033 47.9146 117.421 47.9146C115.72 47.9058 114.197 49.16 113.709 50.9441Z" fill="#787F84"/>
<path d="M119.911 48.0118L118.325 53.8852H119.379C119.415 53.8587 120.992 48.0118 120.992 48.0118H119.937H119.911Z" fill="#787F84"/>
<path d="M122.56 48.0118L120.974 53.8852H124.553C124.589 53.8587 124.73 53.3288 124.73 53.3288H122.179C122.223 53.3199 122.817 51.1295 122.817 51.1295H125.049C125.085 51.103 125.226 50.5731 125.226 50.5731C125.226 50.5731 122.932 50.5731 122.923 50.5731C122.976 50.5731 123.508 48.577 123.508 48.577H125.997C126.033 48.5505 126.174 48.0118 126.174 48.0118H122.595H122.56Z" fill="#787F84"/>
<path d="M128.398 48.0118H127.291C127.255 48.0383 125.678 53.8852 125.678 53.8852H126.564C126.6 53.8587 127.742 49.6369 127.742 49.6369C127.742 49.6369 127.893 48.9657 127.902 48.9303L130.259 53.8852H131.18C131.215 53.8587 132.792 48.0118 132.792 48.0118H131.906H131.88L130.631 52.7282L128.398 48.0118Z" fill="#787F84"/>
<path d="M133.04 50.9441C132.792 51.8714 132.89 52.6928 133.315 53.2404C133.696 53.735 134.325 53.9912 135.122 53.9912C135.734 53.9912 136.318 53.8764 136.726 53.6644C136.744 53.6202 136.611 53.1345 136.611 53.1345C136.292 53.2228 135.946 53.3376 135.45 53.3376C134.936 53.3376 134.564 53.1786 134.325 52.8783C134.006 52.472 133.953 51.792 134.174 50.9706C134.591 49.4514 135.556 48.5417 136.779 48.5417C137.16 48.5417 137.488 48.6124 137.762 48.7625C137.807 48.7537 138.179 48.2944 138.179 48.2944C137.842 48.0206 137.364 47.9146 136.752 47.9146C135.051 47.9058 133.528 49.16 133.04 50.9441Z" fill="#787F84"/>
<path d="M139.587 48.0118L138.002 53.8852H141.581L141.758 53.3288H139.198L139.835 51.1295H142.068C142.103 51.103 142.245 50.5731 142.245 50.5731H139.951L140.535 48.577H143.016C143.051 48.5505 143.193 48.0118 143.193 48.0118H139.614H139.587Z" fill="#787F84"/>
<path d="M149.731 48.0118L145.55 53.8852H146.515C146.542 53.8675 147.765 52.1629 147.765 52.1629H150.351C150.351 52.1629 150.351 52.1452 150.351 52.1629C150.36 52.3749 150.564 53.8852 150.564 53.8852H151.654C151.689 53.841 150.697 48.0118 150.697 48.0118H149.749H149.731ZM149.997 48.7537L150.272 51.6418C150.272 51.6418 148.039 51.6418 148.03 51.6418L149.997 48.7537Z" fill="#787F84"/>
<path d="M155.065 48.0118H153.957C153.922 48.0383 152.345 53.8852 152.345 53.8852H153.231C153.266 53.8587 154.418 49.6369 154.418 49.6369C154.418 49.6369 154.568 48.9657 154.577 48.9303L156.934 53.8852H157.855C157.891 53.8587 159.468 48.0118 159.468 48.0118H158.582H158.555L157.448 52.0922C157.448 52.0922 157.315 52.684 157.306 52.7193L155.065 48.0118Z" fill="#787F84"/>
<path d="M161.169 48.2326L161.151 48.2414L159.689 53.629C160.097 53.8675 160.841 53.9912 161.656 53.9912C163.667 53.9912 165.12 52.8606 165.651 50.8999C165.9 49.9637 165.829 49.2306 165.43 48.7095C165.014 48.1796 164.278 47.9058 163.242 47.9058C162.48 47.9058 161.718 48.0294 161.169 48.2326ZM162.152 48.577C162.418 48.5152 162.692 48.4799 163.091 48.4799C163.729 48.4799 164.181 48.6477 164.438 48.9745C164.739 49.3631 164.774 49.999 164.535 50.8734C164.066 52.5957 163.215 53.3641 161.753 53.3641C161.399 53.3641 161.08 53.3288 160.876 53.2669C160.903 53.1874 162.152 48.577 162.152 48.577Z" fill="#787F84"/>
<path d="M170.825 48.0118L170.675 48.577H172.234C172.181 48.577 170.763 53.8852 170.763 53.8852H171.818C171.853 53.8587 173.288 48.577 173.288 48.577H174.777C174.812 48.5505 174.954 48.0118 174.954 48.0118H170.852H170.825Z" fill="#787F84"/>
<path d="M176.167 48.0118L174.582 53.8852H178.161C178.196 53.8587 178.338 53.3288 178.338 53.3288C178.338 53.3288 175.787 53.3288 175.778 53.3288C175.822 53.3199 176.416 51.1295 176.416 51.1295H178.648C178.684 51.103 178.825 50.5731 178.825 50.5731C178.825 50.5731 176.531 50.5731 176.522 50.5731C176.575 50.5731 177.107 48.577 177.107 48.577H179.596C179.631 48.5505 179.773 48.0118 179.773 48.0118H176.194H176.167Z" fill="#787F84"/>
<path d="M179.782 50.9441C179.534 51.8714 179.632 52.6928 180.057 53.2404C180.438 53.735 181.067 53.9912 181.864 53.9912C182.475 53.9912 183.06 53.8764 183.468 53.6644C183.485 53.6202 183.352 53.1345 183.352 53.1345C183.033 53.2228 182.688 53.3376 182.192 53.3376C181.678 53.3376 181.306 53.1786 181.067 52.8783C180.748 52.472 180.695 51.792 180.916 50.9706C181.332 49.4514 182.307 48.5417 183.521 48.5417C183.902 48.5417 184.229 48.6124 184.504 48.7625C184.548 48.7537 184.921 48.2944 184.921 48.2944C184.584 48.0206 184.105 47.9146 183.485 47.9146C181.784 47.9058 180.261 49.16 179.782 50.9441Z" fill="#787F84"/>
<path d="M190.13 48.0118L189.43 50.5731C189.43 50.5731 186.595 50.5731 186.586 50.5731C186.639 50.5643 187.313 48.0118 187.313 48.0118H186.258C186.223 48.0383 184.646 53.8852 184.646 53.8852H185.7C185.736 53.8587 186.48 51.1384 186.48 51.1384C186.48 51.1384 189.315 51.1384 189.324 51.1384C189.27 51.1384 188.544 53.8852 188.544 53.8852H189.598C189.634 53.8587 191.211 48.0118 191.211 48.0118H190.156H190.13Z" fill="#787F84"/>
<path d="M197.332 48.0118L196.225 52.0923C196.225 52.0923 196.092 52.684 196.083 52.7193C196.074 52.6134 195.862 52.1099 195.862 52.1099L193.851 48.003H192.743C192.708 48.0295 191.131 53.8764 191.131 53.8764H192.017C192.052 53.8499 193.204 49.6281 193.204 49.6281C193.204 49.6281 193.355 48.9568 193.363 48.9215C193.372 49.0275 193.62 49.6193 193.62 49.6193L195.72 53.8764H196.641C196.677 53.8499 198.254 48.003 198.254 48.003H197.368H197.332V48.0118Z" fill="#787F84"/>
<path d="M198.626 50.9441C198.351 51.9686 198.413 52.7812 198.821 53.3023C199.175 53.7615 199.778 53.9912 200.61 53.9912C202.373 53.9912 203.693 52.8871 204.216 50.9617C204.491 49.946 204.42 49.1246 204.012 48.5947C203.658 48.1354 203.064 47.9058 202.24 47.9058C200.469 47.9058 199.149 49.0186 198.626 50.9441ZM202.099 48.4975C202.533 48.4975 202.852 48.63 203.047 48.8773C203.428 49.3719 203.295 50.2552 203.118 50.9087C202.675 52.5427 201.904 53.3376 200.77 53.3376C200.318 53.3376 199.99 53.2051 199.786 52.949C199.485 52.5604 199.468 51.9068 199.733 50.9264C200.043 49.8224 200.69 48.4975 202.099 48.4975Z" fill="#787F84"/>
<path d="M206.245 48.0118L204.659 53.8852H208.238C208.274 53.8587 208.415 53.3288 208.415 53.3288H205.855C205.899 53.3288 207.326 48.003 207.326 48.003H206.271H206.245V48.0118Z" fill="#787F84"/>
<path d="M209.284 50.9441C209.009 51.9686 209.071 52.7812 209.478 53.3023C209.833 53.7615 210.435 53.9912 211.268 53.9912C213.031 53.9912 214.351 52.8871 214.874 50.9617C215.148 49.946 215.078 49.1246 214.67 48.5947C214.316 48.1354 213.722 47.9058 212.898 47.9058C211.117 47.9058 209.806 49.0186 209.284 50.9441ZM212.756 48.4975C213.191 48.4975 213.509 48.63 213.704 48.8773C214.085 49.3719 213.952 50.2552 213.775 50.9087C213.332 52.5427 212.562 53.3376 211.428 53.3376C210.976 53.3376 210.648 53.2051 210.444 52.949C210.143 52.5604 210.125 51.9068 210.391 50.9264C210.692 49.8224 211.348 48.4975 212.756 48.4975Z" fill="#787F84"/>
<path d="M215.893 50.8999C215.645 51.8273 215.724 52.6045 216.15 53.1433C216.584 53.6997 217.328 53.9912 218.32 53.9912C219.312 53.9912 219.853 53.8587 220.349 53.6644C220.367 53.6379 221.191 50.5731 221.191 50.5731H218.869C218.834 50.5996 218.701 51.0942 218.701 51.0942C218.701 51.0942 220.03 51.0942 220.039 51.0942C219.995 51.1031 219.41 53.2581 219.41 53.2581C219.206 53.3199 218.878 53.3641 218.453 53.3641C217.895 53.3641 217.452 53.1786 217.186 52.8253C216.858 52.4014 216.796 51.7566 217.009 50.9706C217.443 49.3631 218.444 48.5152 219.906 48.5152C220.65 48.5152 221.04 48.6565 221.199 48.7449C221.244 48.736 221.678 48.2503 221.678 48.2503C221.412 48.0559 220.907 47.8793 219.941 47.8793C218.329 47.9058 216.46 48.8332 215.893 50.8999Z" fill="#787F84"/>
<path d="M226.728 48.0118L224.424 50.6438C224.424 50.6438 224.424 50.6438 224.424 50.635C224.424 50.5201 223.653 48.003 223.653 48.003H222.519C222.484 48.056 223.68 51.2885 223.68 51.2885C223.68 51.262 222.98 53.8764 222.98 53.8764H224.034C224.07 53.8499 224.77 51.2885 224.77 51.2885L227.738 48.003H226.736H226.728V48.0118Z" fill="#787F84"/>
<path d="M157.448 28.4043H151.211L150.095 32.5555H162.542C166.715 32.5555 169.186 29.632 170.055 26.3994C170.923 23.1757 169.39 20.5613 165.253 20.5613H140.34L135.946 36.8832C135.468 38.6673 136.531 40.1158 138.321 40.1158H163.02L164.137 35.9647H146.462C146.17 35.9647 146.002 35.735 146.081 35.4436L148.969 24.7125H159.087C160.026 24.7125 160.575 25.472 160.327 26.3994C160.07 27.3356 159.282 28.4043 157.448 28.4043Z" fill="#C51065"/>
<path d="M182.05 25.2336C182.13 24.9509 182.422 24.7213 182.706 24.7125H199.946L201.062 20.5613H173.572L169.213 36.7507C168.717 38.6055 169.886 40.1158 171.809 40.1158H195.8L196.916 35.9647H180.039C179.561 35.9647 179.259 35.5849 179.392 35.1256L182.05 25.2336Z" fill="#C51065"/>
<path d="M223.255 20.5613L221.359 27.6448H211.702L213.607 20.5613H203.871L198.608 40.1246H208.353L210.595 31.7959H220.243L218.001 40.1246H227.746L233 20.5613H223.255Z" fill="#C51065"/>
<path d="M35.0475 21.5505C34.2058 20.9235 32.9567 20.5613 31.2291 20.5613H6.63564L1.36435 40.107H11.1096L15.2646 24.7213H24.558C26.2945 24.7213 26.8172 25.8607 26.4362 27.2826C26.0553 28.6958 24.6023 29.844 23.1848 29.844H16.8859L15.7696 33.9951H27.6411C31.9113 33.9951 35.1804 30.9922 36.1726 27.2826C36.8193 24.8538 36.6421 22.7252 35.0475 21.5505Z" fill="#C51065"/>
<path d="M66.8879 20.5613H45.3331C41.6477 20.5613 39.5126 22.6016 38.733 25.4809L36.2169 34.9225C35.4373 37.8018 37.1737 40.16 40.0618 40.16H61.6166C65.4792 40.16 67.508 37.8018 68.2876 34.9225L70.7417 25.7988C71.5124 22.9284 70.7417 20.5613 66.8879 20.5613ZM60.8192 26.4701L58.7196 34.2689C58.4626 35.2316 57.4615 36.0177 56.4959 36.0177H47.4151C46.4494 36.0177 45.8736 35.2316 46.1305 34.2689L48.2301 26.4701C48.4871 25.5074 49.4882 24.7213 50.4538 24.7213H59.5346C60.8547 24.7213 61.0761 25.5074 60.8192 26.4701Z" fill="#C51065"/>
<path d="M138.019 20.5613H106.152L105.045 24.7213H116.305L112.15 40.1688H122.046L126.192 24.7213H136.903L138.019 20.5613Z" fill="#C51065"/>
<path d="M72.8856 26.4082C72.0174 29.632 73.9399 32.2463 77.1735 32.2463H90.4714C91.5168 32.2463 92.1369 33.0942 91.8534 34.1276C91.5699 35.1698 90.7814 36.0177 89.4525 36.0177H71.4238L70.3076 40.1688H93.9265C98.3119 40.1688 100.713 37.4661 101.608 34.1276C102.502 30.789 101.581 28.0864 97.169 28.0864H83.8623C82.9321 28.0864 82.3739 27.3356 82.6309 26.3994L83.0827 24.7125H102.848L103.964 20.5613H74.4626L72.8856 26.4082Z" fill="#C51065"/>
<path d="M69.4748 3.34741H68.1902C68.1902 3.34741 68.9875 0.388625 69.0052 0.335632C68.9521 0.335632 67.1713 0.335632 67.1093 0.335632C67.0916 0.388625 65.24 7.26007 65.24 7.26007L65.2223 7.2689C65.0362 7.33073 64.8148 7.39255 64.5401 7.43671C64.2743 7.48087 63.9554 7.50737 63.601 7.50737H61.5102L63.1226 1.51031C63.1226 1.51031 65.6298 1.51031 65.683 1.51031C65.7007 1.45732 65.931 0.574101 65.9488 0.521108C65.8867 0.521108 61.4748 0.521108 61.4128 0.521108C61.3951 0.574101 59.5789 7.33956 59.5789 7.33956C59.4815 7.68401 59.5346 7.96664 59.7295 8.17862C59.9244 8.39059 60.2345 8.49657 60.6597 8.49657H63.2555C63.6276 8.49657 63.9554 8.45241 64.2389 8.38176C64.5224 8.30227 64.7616 8.21394 64.9654 8.10796L65.0185 8.08146C65.0185 8.08146 64.1415 11.3317 64.1326 11.3847C64.1858 11.3847 65.9665 11.3847 66.0285 11.3847C66.0462 11.3317 67.9332 4.32778 67.9332 4.32778H69.2178C69.2178 4.32778 67.3308 11.3317 67.3131 11.3847C67.3663 11.3847 69.147 11.3847 69.209 11.3847C69.2267 11.3317 72.168 0.397458 72.1857 0.344465C72.1237 0.344465 70.3518 0.344465 70.2898 0.344465C70.281 0.388625 69.4748 3.34741 69.4748 3.34741Z" fill="#F58345"/>
<path d="M73.5323 8.47008C73.5943 8.47008 80.6286 8.47008 80.6286 8.47008C80.6286 8.47008 79.8667 11.3229 79.849 11.3759C79.9022 11.3759 81.7892 11.3759 81.8512 11.3759C81.8689 11.3229 82.8789 7.55153 82.8878 7.49854C82.8257 7.49854 73.8513 7.49854 73.7981 7.49854C73.7804 7.55153 73.5412 8.42592 73.5323 8.47008Z" fill="#F58345"/>
<path d="M84.2078 2.59667C84.2078 2.59667 84.8102 0.344467 84.8279 0.291473C84.7659 0.291473 82.8878 0.291473 82.8257 0.291473C82.808 0.344467 81.107 6.65948 81.0982 6.71247C81.1513 6.71247 83.0384 6.71247 83.1004 6.71247C83.1181 6.65948 83.9509 3.56822 83.9509 3.56822C83.9509 3.56822 85.9531 3.56822 86.0151 3.56822C86.0328 3.51522 86.2632 2.64084 86.2809 2.59667C86.21 2.59667 84.2078 2.59667 84.2078 2.59667Z" fill="#F58345"/>
<path d="M38.9633 6.81845C36.7927 6.81845 35.1272 7.78999 34.7197 9.29146C34.3121 10.7929 35.455 11.7733 37.6255 11.7733C39.7961 11.7733 41.4616 10.8018 41.8691 9.29146C42.2767 7.78999 41.1427 6.81845 38.9633 6.81845ZM39.9644 9.29146C39.7163 10.2012 38.8835 10.8194 37.8913 10.8194C36.8991 10.8194 36.3941 10.21 36.6421 9.29146C36.8902 8.38175 37.723 7.7635 38.7152 7.7635C39.7075 7.77233 40.2124 8.38175 39.9644 9.29146Z" fill="#F58345"/>
<path d="M75.2156 2.19038C74.5954 2.61432 74.1702 3.22374 73.9753 3.94798C73.5678 5.47595 74.4448 6.38566 76.3407 6.38566C78.2366 6.38566 79.6098 5.47595 80.0173 3.94798C80.2122 3.22374 80.1148 2.61432 79.725 2.19038L79.6807 2.14621C79.6807 2.14621 81.2222 2.14621 81.2842 2.14621C81.3019 2.09322 81.5234 1.25416 81.5411 1.20117C81.488 1.20117 78.7505 1.20117 78.7505 1.20117C78.7505 1.20117 79.0517 0.0794824 79.0694 0.0264893C79.0074 0.0264893 77.1292 0.0264893 77.0672 0.0264893C77.0495 0.0794824 76.7483 1.20117 76.7483 1.20117C76.7483 1.20117 74.0107 1.20117 73.9576 1.20117C73.9399 1.25416 73.7184 2.09322 73.7007 2.14621C73.7538 2.14621 75.2953 2.14621 75.2953 2.14621L75.2156 2.19038ZM75.7294 3.94798C75.9775 3.02943 76.5976 2.48184 77.3861 2.48184C78.1746 2.48184 78.5024 3.02943 78.2632 3.94798C78.0151 4.8577 77.395 5.40529 76.6065 5.40529C75.8092 5.40529 75.4814 4.8577 75.7294 3.94798Z" fill="#F58345"/>
<path d="M14.4761 0.662415H8.58468L8.30118 1.68695H12.155L11.8715 2.70265C10.9678 5.9264 7.61016 7.06575 6.09521 7.58685L6.36985 8.49657C8.09742 8.15211 12.6068 7.29539 13.8737 2.93229L14.4761 0.662415Z" fill="#F58345"/>
<path d="M19.9335 2.83512H18.0021L18.6843 0.309113H16.7618L13.7762 11.3847H15.6987L17.7364 3.85082H19.6588L19.9335 2.83512Z" fill="#F58345"/>
<path d="M27.7031 11.3847H29.6344L32.62 0.309113H30.6887L27.7031 11.3847Z" fill="#F58345"/>
<path d="M25.7363 2.69382L25.8338 2.35819H28.3409L28.6156 1.32483H26.1084L26.4628 0H24.5403L24.1859 1.32483H21.6787L21.4041 2.35819H23.9113L23.8138 2.69382C23.1848 5.01668 21.5901 6.59765 19.6854 7.51619L19.9866 8.42591C20.8903 8.16094 23.1051 6.73896 23.9733 5.67027C24.2657 6.73896 25.7009 8.16094 26.4628 8.42591L27.2601 7.51619C25.8515 6.59765 25.1073 5.01668 25.7363 2.69382Z" fill="#F58345"/>
<path d="M37.1382 4.32778C37.2091 5.28165 38.4317 6.26203 39.6011 6.35035L40.3896 5.49363C39.2202 5.11384 38.414 3.97449 38.6621 2.3582H40.8769L41.1515 1.3425H38.9101L39.2645 0.0176697H37.342L36.9876 1.3425H34.764L34.4893 2.3582H36.6687C36.0663 3.895 34.7374 5.01669 33.4085 5.44063L33.5768 6.34152C34.8083 6.24436 36.5624 5.28165 37.1382 4.32778Z" fill="#F58345"/>
<path d="M45.8913 2.49068H43.9688L44.5535 0.317963H42.6222L40.8592 6.88028H42.7816L43.6941 3.50638H45.6166L45.8913 2.49068Z" fill="#F58345"/>
<path d="M46.095 6.06771H51.1183L50.9234 6.80078H47.4505L47.1759 7.80765H54.2545L54.0418 8.59371H47.0873L46.662 10.1747C46.4671 10.8989 46.8835 11.3847 47.6809 11.3847H55.4505L55.7251 10.3778H48.5491L48.7705 9.56526H55.7251L56.4693 6.80961H52.8547L53.0496 6.07654H58.064L58.3386 5.06967H46.3785L46.095 6.06771Z" fill="#F58345"/>
<path d="M52.9256 2.9058C53.1825 3.94799 55.1847 4.56625 56.7617 4.56625L57.2489 3.78018C55.9112 3.6212 54.6886 2.98529 54.3785 2.07557H57.4615L57.7362 1.05987H54.3962L54.6797 0.0176697H52.7395L52.456 1.05987H49.1338L48.8591 2.07557H51.9245C51.1448 2.96762 49.6122 3.60354 48.2036 3.77135V4.56625C49.7982 4.56625 52.1017 3.96566 52.9256 2.9058Z" fill="#F58345"/>
</g>
<defs>
<clipPath id="clip0_94_380">
<rect width="233" height="54" fill="white"/>
</clipPath>
</defs>
</svg>
