<svg width="95" height="15" viewBox="0 0 95 15" fill="none" xmlns="http://www.w3.org/2000/svg">
<path d="M64.014 3.9882H61.4561L60.9983 5.65811H66.1033C67.8146 5.65811 68.8284 4.48206 69.1844 3.18166C69.5405 1.88482 68.9119 0.83313 67.2151 0.83313H56.9979L55.1957 7.39908C54.9995 8.11679 55.4355 8.69948 56.1694 8.69948H66.2995L66.7573 7.02957H59.5086C59.3887 7.02957 59.3196 6.93719 59.3523 6.81994L60.5368 2.50304H64.6862C65.0714 2.50304 65.2967 2.8086 65.1949 3.18166C65.0895 3.55828 64.7662 3.9882 64.014 3.9882Z" fill="#C51065"/>
<path d="M74.1041 2.71267C74.1368 2.59897 74.2567 2.50659 74.373 2.50304H81.4437L81.9015 0.83313H70.6269L68.8393 7.34579C68.6358 8.09192 69.1154 8.69948 69.9039 8.69948H79.7432L80.201 7.02957H73.2793C73.0831 7.02957 72.9596 6.87679 73.0141 6.69203L74.1041 2.71267Z" fill="#C51065"/>
<path d="M91.0033 0.83313L90.2257 3.68264H86.2653L87.0464 0.83313H83.0533L80.895 8.70303H84.8918L85.8111 5.35255H89.7679L88.8486 8.70303H92.8454L95 0.83313H91.0033Z" fill="#C51065"/>
<path d="M13.8144 1.23107C13.4692 0.978803 12.9569 0.83313 12.2483 0.83313H2.1619L0 8.69593H3.99679L5.70087 2.50659H9.51235C10.2245 2.50659 10.4389 2.96493 10.2826 3.53697C10.1264 4.10545 9.53052 4.56734 8.94917 4.56734H6.36579L5.90798 6.23725H10.7768C12.5281 6.23725 13.8689 5.02923 14.2758 3.53697C14.541 2.55989 14.4684 1.70362 13.8144 1.23107Z" fill="#C51065"/>
<path d="M26.873 0.83313H18.0329C16.5214 0.83313 15.6457 1.65387 15.326 2.81215L14.2941 6.61031C13.9743 7.76859 14.6865 8.71724 15.871 8.71724H24.7111C26.2953 8.71724 27.1274 7.76859 27.4471 6.61031L28.4536 2.94006C28.7697 1.78533 28.4536 0.83313 26.873 0.83313ZM24.3841 3.21009L23.523 6.34739C23.4176 6.73467 23.0071 7.05089 22.611 7.05089H18.8867C18.4907 7.05089 18.2545 6.73467 18.3599 6.34739L19.221 3.21009C19.3264 2.82281 19.737 2.50659 20.133 2.50659H23.8573C24.3987 2.50659 24.4895 2.82281 24.3841 3.21009Z" fill="#C51065"/>
<path d="M56.0459 0.83313H42.9764L42.5222 2.50659H47.1403L45.4362 8.7208H49.4948L51.1952 2.50659H55.5881L56.0459 0.83313Z" fill="#C51065"/>
<path d="M29.3327 3.18522C28.9766 4.48206 29.7651 5.53375 31.0913 5.53375H36.5451C36.9739 5.53375 37.2282 5.87484 37.1119 6.29054C36.9957 6.7098 36.6723 7.05089 36.1273 7.05089H28.7332L28.2754 8.7208H37.9622C39.7607 8.7208 40.7454 7.63358 41.1123 6.29054C41.4793 4.94751 41.1014 3.86029 39.292 3.86029H33.8346C33.453 3.86029 33.2241 3.55828 33.3295 3.18166L33.5148 2.50304H41.621L42.0788 0.83313H29.9795L29.3327 3.18522Z" fill="#C51065"/>
<path d="M0.643041 11.7059L0.635649 11.7095L0 14.0187H0.432389C0.447172 14.0079 0.716953 13.0357 0.720649 13.0249C0.720649 13.0357 0.846301 13.043 0.846301 13.043C1.81086 13.1152 2.27651 12.7141 2.38369 12.313C2.43542 12.1214 2.41325 11.9624 2.31716 11.8396C2.17673 11.6625 1.89586 11.5721 1.47825 11.5721C1.16413 11.5721 0.861083 11.6227 0.643041 11.7059ZM1.40804 11.7962C1.66673 11.7962 1.82934 11.8468 1.91064 11.948C1.97717 12.0311 1.98456 12.1467 1.9439 12.3057C1.83673 12.6924 1.48565 12.8659 0.89804 12.8225C0.89804 12.8225 0.764997 12.8117 0.761301 12.8117C0.779779 12.8117 1.04956 11.8323 1.04956 11.8323C1.04956 11.8396 1.40804 11.7962 1.40804 11.7962Z" fill="#787F84"/>
<path d="M2.60549 12.8155C2.49093 13.2347 2.5168 13.5672 2.6868 13.784C2.83462 13.9719 3.08592 14.0659 3.43331 14.0659C4.16874 14.0659 4.71939 13.6141 4.93744 12.8263C5.052 12.4107 5.02244 12.0747 4.85244 11.8578C4.70461 11.6699 4.457 11.5759 4.11331 11.5759C3.37418 11.5723 2.82353 12.0277 2.60549 12.8155ZM3.08962 13.6394C2.96397 13.4804 2.95658 13.213 3.06745 12.8119C3.1931 12.3565 3.46657 11.8145 4.05418 11.8145C4.23527 11.8145 4.36831 11.8687 4.44961 11.9699C4.60853 12.1722 4.55309 12.5336 4.47918 12.801C4.2944 13.4696 3.97288 13.7948 3.49984 13.7948C3.31136 13.7984 3.17462 13.7442 3.08962 13.6394Z" fill="#787F84"/>
<path d="M7.42456 11.6155L7.13261 12.6635H5.94631L6.24935 11.6155H5.80957C5.79479 11.6263 5.13696 14.0187 5.13696 14.0187H5.57674C5.59153 14.0078 5.90196 12.8948 5.90196 12.8948H7.08826L6.76304 14.0187H7.20282C7.21761 14.0078 7.87543 11.6155 7.87543 11.6155H7.43565H7.42456Z" fill="#787F84"/>
<path d="M9.3315 11.6155L7.58716 14.0187H7.98998C8.00107 14.0114 8.51107 13.314 8.51107 13.314H9.59019C9.59019 13.314 9.59019 13.3067 9.59019 13.314C9.59389 13.4007 9.67889 14.0187 9.67889 14.0187H10.1335C10.1482 14.0006 9.73432 11.6155 9.73432 11.6155H9.33889H9.3315ZM9.44237 11.919L9.55693 13.1008C9.55693 13.1008 8.62563 13.1008 8.62194 13.1008L9.44237 11.919Z" fill="#787F84"/>
<path d="M12.4174 14.0186H12.8018C12.8166 14.0077 13.4744 11.6154 13.4744 11.6154H13.1048H13.0937L12.6318 13.285C12.6318 13.285 12.5801 13.5271 12.5764 13.5415L11.6451 11.6118H11.1831C11.1683 11.6226 10.5105 14.0149 10.5105 14.0149H10.8838C10.8985 14.0041 11.379 12.2767 11.379 12.2767C11.379 12.2767 11.4418 12.002 11.4455 11.9876L12.4174 14.0186Z" fill="#787F84"/>
<path d="M13.6183 12.7973C13.5111 13.1768 13.5481 13.4948 13.7255 13.7152C13.9029 13.9429 14.217 14.0622 14.6272 14.0622C15.0411 14.0622 15.2666 14.008 15.4735 13.9285C15.4846 13.9176 15.8246 12.6636 15.8246 12.6636H14.8563C14.8416 12.6745 14.7861 12.8768 14.7861 12.8768C14.7861 12.8768 15.3405 12.8768 15.3442 12.8768C15.322 12.8804 15.0818 13.7622 15.0818 13.7622C14.9968 13.7875 14.86 13.8056 14.6827 13.8056C14.4498 13.8056 14.265 13.7297 14.1542 13.5851C14.0174 13.4117 13.9916 13.1479 14.0803 12.8262C14.2614 12.1685 14.679 11.8216 15.2887 11.8216C15.5992 11.8216 15.7618 11.8794 15.8283 11.9156C15.8468 11.9119 16.0279 11.7132 16.0279 11.7132C15.917 11.6337 15.71 11.5614 15.3035 11.5614C14.6309 11.5722 13.8511 11.9517 13.6183 12.7973Z" fill="#787F84"/>
<path d="M19.7421 11.6155L19.269 13.3248C19.1803 13.6428 18.844 13.7874 18.5705 13.7874C18.3931 13.7874 18.249 13.7332 18.1714 13.6356C18.1086 13.5561 18.0938 13.4513 18.1271 13.3357L18.5964 11.6191H18.1566C18.1418 11.6299 17.6688 13.332 17.6688 13.332C17.6208 13.5127 17.6466 13.6754 17.7501 13.8018C17.8868 13.9753 18.1455 14.0693 18.4781 14.0693C19.0731 14.0693 19.5684 13.7693 19.6866 13.3393L20.1597 11.6191H19.7568H19.7421V11.6155Z" fill="#787F84"/>
<path d="M22.6543 11.6154L22.1924 13.285C22.1924 13.285 22.1369 13.5271 22.1332 13.5415C22.1295 13.4982 22.0409 13.2922 22.0409 13.2922L21.2019 11.6118H20.74C20.7252 11.6226 20.0674 14.0149 20.0674 14.0149H20.4369C20.4517 14.0041 20.9322 12.2767 20.9322 12.2767C20.9322 12.2767 20.995 12.002 20.9987 11.9876C21.0024 12.031 21.1059 12.2731 21.1059 12.2731L21.9817 14.0149H22.3661C22.3809 14.0041 23.0387 11.6118 23.0387 11.6118H22.6691H22.6543V11.6154Z" fill="#787F84"/>
<path d="M23.652 11.6155L22.9905 14.0187H23.4303C23.445 14.0078 24.1029 11.6155 24.1029 11.6155H23.6631H23.652Z" fill="#787F84"/>
<path d="M26.3351 11.6155L25.267 13.2959C25.267 13.2959 25.0859 13.5995 25.0822 13.6067C25.1007 13.5995 25.0933 13.3031 25.0933 13.3031L24.9677 11.6155H24.502C24.4872 11.6335 24.7718 14.0187 24.7718 14.0187H25.1561C25.1672 14.0114 26.7527 11.6155 26.7527 11.6155H26.3388H26.3351Z" fill="#787F84"/>
<path d="M27.1481 11.6155L26.4866 14.0187H27.9796C27.9944 14.0078 28.0535 13.791 28.0535 13.791H26.9892L27.2553 12.8912H28.1866C28.2013 12.8803 28.2605 12.6635 28.2605 12.6635H27.2996L27.5435 11.8468H28.582C28.5968 11.8359 28.6559 11.6155 28.6559 11.6155H27.1629H27.1481Z" fill="#787F84"/>
<path d="M29.0403 11.7024L29.0329 11.706L28.3972 14.0189H28.8333C28.8481 14.008 29.1548 12.9094 29.1548 12.9022C29.1548 12.9347 29.8755 14.0189 29.8755 14.0189H30.3707C30.3818 13.9972 29.6316 12.9528 29.6316 12.9528C30.2266 12.96 30.6737 12.7071 30.7846 12.3023C30.8363 12.1144 30.8142 11.959 30.7218 11.8397C30.585 11.6627 30.2968 11.5759 29.8718 11.5759C29.5687 11.5723 29.2546 11.6229 29.0403 11.7024ZM29.4505 11.8325C29.5318 11.8072 29.6574 11.7928 29.8126 11.7928C30.0639 11.7928 30.2229 11.8397 30.3005 11.9409C30.367 12.024 30.3744 12.1433 30.33 12.3095C30.2339 12.6565 29.9235 12.8371 29.4283 12.8371C29.4283 12.8371 29.2103 12.8191 29.1807 12.8191C29.1881 12.7829 29.4505 11.8325 29.4505 11.8325Z" fill="#787F84"/>
<path d="M31.158 12.2553C31.0767 12.5553 31.2467 12.7757 31.668 12.913C32.0264 13.0287 32.1447 13.1516 32.0893 13.3539C32.0153 13.6214 31.7382 13.7912 31.3834 13.7912C31.1764 13.7912 31.0027 13.7551 30.866 13.6828C30.8475 13.6864 30.6738 13.9105 30.6738 13.9105C30.8475 14.0261 31.0656 14.0659 31.3908 14.0659C31.9636 14.0659 32.4477 13.7695 32.5623 13.3467C32.6177 13.1407 32.6214 12.848 32.0153 12.6528C31.7234 12.5589 31.5534 12.4541 31.6125 12.2336C31.6827 11.9771 31.9193 11.8253 32.2445 11.8253C32.4736 11.8253 32.6362 11.8939 32.7101 11.9337C32.7286 11.9301 32.8875 11.7277 32.8875 11.7277C32.7471 11.6229 32.5216 11.5759 32.2556 11.5759C31.7308 11.5723 31.2688 11.8614 31.158 12.2553Z" fill="#787F84"/>
<path d="M33.5453 11.6155L32.8838 14.0187H33.3236C33.3384 14.0078 33.9962 11.6155 33.9962 11.6155H33.5564H33.5453Z" fill="#787F84"/>
<path d="M34.3287 11.6155L34.2622 11.8468H34.9126C34.8942 11.8468 34.2992 14.0187 34.2992 14.0187H34.7389C34.7537 14.0078 35.3524 11.8468 35.3524 11.8468H35.9733C35.9881 11.8359 36.0472 11.6155 36.0472 11.6155H34.3361H34.3287Z" fill="#787F84"/>
<path d="M38.0504 11.6154L37.0895 12.6923C37.0895 12.6923 37.0895 12.6923 37.0895 12.6887C37.0895 12.6381 36.7717 11.6118 36.7717 11.6118H36.2987C36.2839 11.6334 36.7828 12.9561 36.7828 12.9561C36.7828 12.9453 36.4908 14.0149 36.4908 14.0149H36.9306C36.9454 14.0041 37.2374 12.9561 37.2374 12.9561L38.4754 11.6118H38.0578H38.0504V11.6154Z" fill="#787F84"/>
<path d="M41.1287 11.5721C40.3896 11.5721 39.8389 12.0239 39.6209 12.8117C39.5063 13.2309 39.5322 13.5634 39.7022 13.7766C39.85 13.9645 40.1013 14.0584 40.4487 14.0584C41.1878 14.0584 41.7348 13.6067 41.9528 12.8189C42.0674 12.4033 42.0378 12.0672 41.8678 11.8504C41.72 11.6697 41.4724 11.5721 41.1287 11.5721ZM41.0696 11.8143C41.2506 11.8143 41.3837 11.8685 41.465 11.9697C41.6239 12.172 41.5685 12.5334 41.4946 12.8008C41.3098 13.4694 40.9883 13.7946 40.5152 13.7946C40.3267 13.7946 40.19 13.7404 40.105 13.6356C39.9793 13.4766 39.9757 13.2092 40.0828 12.8081C40.2085 12.3563 40.482 11.8143 41.0696 11.8143Z" fill="#787F84"/>
<path d="M42.6994 11.6155L42.0378 14.0187H42.4776L42.8028 12.8948H43.7304C43.7452 12.8839 43.8044 12.6671 43.8044 12.6671H42.8509L43.0911 11.8468H44.1222C44.137 11.8359 44.1961 11.6155 44.1961 11.6155H42.7068H42.6994Z" fill="#787F84"/>
<path d="M45.6817 12.2553C45.6004 12.5553 45.7704 12.7757 46.1917 12.913C46.5501 13.0287 46.6647 13.1516 46.6093 13.3539C46.5354 13.6214 46.2582 13.7912 45.9034 13.7912C45.6965 13.7912 45.5228 13.7551 45.386 13.6828C45.3675 13.6864 45.1938 13.9105 45.1938 13.9105C45.3675 14.0261 45.5856 14.0659 45.9108 14.0659C46.4836 14.0659 46.9678 13.7695 47.0823 13.3467C47.1378 13.1407 47.1451 12.848 46.5354 12.6528C46.2434 12.5589 46.0734 12.4541 46.1325 12.2336C46.2028 11.9771 46.4393 11.8253 46.7645 11.8253C46.9936 11.8253 47.1562 11.8939 47.2301 11.9337C47.2486 11.9301 47.4075 11.7277 47.4075 11.7277C47.2671 11.6229 47.0454 11.5759 46.7793 11.5759C46.2508 11.5723 45.7888 11.8614 45.6817 12.2553Z" fill="#787F84"/>
<path d="M47.4335 12.8155C47.33 13.1949 47.3707 13.531 47.5481 13.7551C47.707 13.9575 47.9694 14.0623 48.302 14.0623C48.557 14.0623 48.8009 14.0153 48.9709 13.9285C48.9783 13.9105 48.9228 13.7117 48.9228 13.7117C48.7898 13.7479 48.6457 13.7948 48.4387 13.7948C48.2244 13.7948 48.0692 13.7298 47.9694 13.6069C47.8363 13.4407 47.8142 13.1624 47.9065 12.8263C48.0802 12.2048 48.4868 11.8325 48.9931 11.8325C49.152 11.8325 49.2887 11.8614 49.4033 11.9229C49.4218 11.9193 49.577 11.7313 49.577 11.7313C49.4365 11.6193 49.237 11.5759 48.982 11.5759C48.2724 11.5723 47.6368 12.0855 47.4335 12.8155Z" fill="#787F84"/>
<path d="M50.0204 11.6155L49.3589 14.0187H49.7987C49.8135 14.0078 50.4713 11.6155 50.4713 11.6155H50.0315H50.0204Z" fill="#787F84"/>
<path d="M51.1254 11.6155L50.4639 14.0187H51.9569C51.9717 14.0078 52.0308 13.791 52.0308 13.791H50.9665C50.985 13.7874 51.2326 12.8912 51.2326 12.8912H52.1639C52.1786 12.8803 52.2378 12.6635 52.2378 12.6635C52.2378 12.6635 51.2806 12.6635 51.2769 12.6635C51.2991 12.6635 51.5208 11.8468 51.5208 11.8468H52.5593C52.5741 11.8359 52.6332 11.6155 52.6332 11.6155H51.1402H51.1254Z" fill="#787F84"/>
<path d="M53.5608 11.6155H53.0989C53.0841 11.6263 52.4263 14.0187 52.4263 14.0187H52.7958C52.8106 14.0078 53.2874 12.2804 53.2874 12.2804C53.2874 12.2804 53.3502 12.0058 53.3539 11.9913L54.3369 14.0187H54.7213C54.736 14.0078 55.3939 11.6155 55.3939 11.6155H55.0243H55.0132L54.4921 13.5453L53.5608 11.6155Z" fill="#787F84"/>
<path d="M55.4975 12.8155C55.394 13.1949 55.4346 13.531 55.612 13.7551C55.7709 13.9575 56.0333 14.0623 56.3659 14.0623C56.6209 14.0623 56.8649 14.0153 57.0349 13.9285C57.0422 13.9105 56.9868 13.7117 56.9868 13.7117C56.8538 13.7479 56.7096 13.7948 56.5027 13.7948C56.2883 13.7948 56.1331 13.7298 56.0333 13.6069C55.9003 13.4407 55.8781 13.1624 55.9705 12.8263C56.1442 12.2048 56.547 11.8325 57.057 11.8325C57.2159 11.8325 57.3527 11.8614 57.4672 11.9229C57.4857 11.9193 57.6409 11.7313 57.6409 11.7313C57.5005 11.6193 57.3009 11.5759 57.0459 11.5759C56.3364 11.5723 55.7007 12.0855 55.4975 12.8155Z" fill="#787F84"/>
<path d="M58.2284 11.6155L57.5669 14.0187H59.0599L59.1338 13.791H58.0658L58.3319 12.8912H59.2632C59.278 12.8803 59.3371 12.6635 59.3371 12.6635H58.3799L58.6238 11.8468H59.6586C59.6734 11.8359 59.7325 11.6155 59.7325 11.6155H58.2395H58.2284Z" fill="#787F84"/>
<path d="M62.4599 11.6155L60.7156 14.0187H61.1184C61.1295 14.0114 61.6395 13.314 61.6395 13.314H62.7186C62.7186 13.314 62.7186 13.3067 62.7186 13.314C62.7223 13.4007 62.8073 14.0187 62.8073 14.0187H63.2619C63.2767 14.0006 62.8627 11.6155 62.8627 11.6155H62.4673H62.4599ZM62.5708 11.919L62.6854 13.1008C62.6854 13.1008 61.7541 13.1008 61.7504 13.1008L62.5708 11.919Z" fill="#787F84"/>
<path d="M64.6849 11.6155H64.2229C64.2081 11.6263 63.5503 14.0187 63.5503 14.0187H63.9199C63.9346 14.0078 64.4151 12.2804 64.4151 12.2804C64.4151 12.2804 64.4779 12.0058 64.4816 11.9913L65.4646 14.0187H65.849C65.8638 14.0078 66.5216 11.6155 66.5216 11.6155H66.152H66.1409L65.679 13.2851C65.679 13.2851 65.6235 13.5272 65.6198 13.5416L64.6849 11.6155Z" fill="#787F84"/>
<path d="M67.2309 11.7059L67.2235 11.7095L66.6138 13.9139C66.7838 14.0115 67.0942 14.0621 67.4342 14.0621C68.2731 14.0621 68.8792 13.5995 69.1009 12.7972C69.2044 12.4142 69.1748 12.1142 69.0085 11.901C68.8348 11.6842 68.5281 11.5721 68.0957 11.5721C67.7779 11.5721 67.4601 11.6227 67.2309 11.7059ZM67.6412 11.8468C67.752 11.8215 67.8666 11.807 68.0329 11.807C68.299 11.807 68.4875 11.8757 68.5946 12.0094C68.7203 12.1684 68.7351 12.4286 68.6353 12.7864C68.4394 13.4911 68.0846 13.8055 67.4749 13.8055C67.327 13.8055 67.194 13.791 67.109 13.7657C67.1201 13.7332 67.6412 11.8468 67.6412 11.8468Z" fill="#787F84"/>
<path d="M71.2594 11.6155L71.1965 11.8468H71.847C71.8248 11.8468 71.2335 14.0187 71.2335 14.0187H71.6733C71.6881 14.0078 72.2867 11.8468 72.2867 11.8468H72.9076C72.9224 11.8359 72.9815 11.6155 72.9815 11.6155H71.2705H71.2594Z" fill="#787F84"/>
<path d="M73.4877 11.6155L72.8262 14.0187H74.3192C74.334 14.0078 74.3931 13.791 74.3931 13.791C74.3931 13.791 73.3288 13.791 73.3251 13.791C73.3436 13.7874 73.5912 12.8912 73.5912 12.8912H74.5225C74.5372 12.8803 74.5964 12.6635 74.5964 12.6635C74.5964 12.6635 73.6392 12.6635 73.6355 12.6635C73.6577 12.6635 73.8794 11.8468 73.8794 11.8468H74.9179C74.9327 11.8359 74.9918 11.6155 74.9918 11.6155H73.4988H73.4877Z" fill="#787F84"/>
<path d="M74.9955 12.8155C74.892 13.1949 74.9327 13.531 75.1101 13.7551C75.269 13.9575 75.5314 14.0623 75.864 14.0623C76.119 14.0623 76.3629 14.0153 76.5329 13.9285C76.5403 13.9105 76.4849 13.7117 76.4849 13.7117C76.3518 13.7479 76.2077 13.7948 76.0007 13.7948C75.7864 13.7948 75.6312 13.7298 75.5314 13.6069C75.3983 13.4407 75.3762 13.1624 75.4686 12.8263C75.6423 12.2048 76.0488 11.8325 76.5551 11.8325C76.714 11.8325 76.8507 11.8614 76.9653 11.9229C76.9838 11.9193 77.139 11.7313 77.139 11.7313C76.9986 11.6193 76.799 11.5759 76.5403 11.5759C75.8307 11.5723 75.1951 12.0855 74.9955 12.8155Z" fill="#787F84"/>
<path d="M79.312 11.6155L79.0201 12.6635C79.0201 12.6635 77.8375 12.6635 77.8338 12.6635C77.8559 12.6599 78.1368 11.6155 78.1368 11.6155H77.697C77.6822 11.6263 77.0244 14.0187 77.0244 14.0187H77.4642C77.479 14.0078 77.7894 12.8948 77.7894 12.8948C77.7894 12.8948 78.972 12.8948 78.9757 12.8948C78.9535 12.8948 78.6505 14.0187 78.6505 14.0187H79.0903C79.1051 14.0078 79.7629 11.6155 79.7629 11.6155H79.3231H79.312Z" fill="#787F84"/>
<path d="M82.3164 11.6154L81.8545 13.285C81.8545 13.285 81.799 13.5271 81.7954 13.5415C81.7917 13.4982 81.703 13.2922 81.703 13.2922L80.864 11.6118H80.4021C80.3873 11.6226 79.7295 14.0149 79.7295 14.0149H80.0991C80.1138 14.0041 80.5943 12.2767 80.5943 12.2767C80.5943 12.2767 80.6571 12.002 80.6608 11.9876C80.6645 12.031 80.768 12.2731 80.768 12.2731L81.6438 14.0149H82.0282C82.043 14.0041 82.7008 11.6118 82.7008 11.6118H82.3312H82.3164V11.6154Z" fill="#787F84"/>
<path d="M82.8562 12.8153C82.7417 13.2345 82.7675 13.567 82.9375 13.7802C83.0854 13.9681 83.3367 14.0621 83.684 14.0621C84.4195 14.0621 84.9701 13.6103 85.1882 12.8225C85.3027 12.4069 85.2732 12.0709 85.1032 11.854C84.9553 11.6661 84.7077 11.5721 84.364 11.5721C83.6249 11.5721 83.0743 12.0275 82.8562 12.8153ZM84.3049 11.8143C84.486 11.8143 84.619 11.8685 84.7003 11.9697C84.8593 12.172 84.8038 12.5334 84.7299 12.8008C84.5451 13.4694 84.2236 13.7946 83.7506 13.7946C83.5621 13.7946 83.4254 13.7404 83.3404 13.6356C83.2147 13.4766 83.2073 13.2092 83.3182 12.8081C83.4475 12.3563 83.7173 11.8143 84.3049 11.8143Z" fill="#787F84"/>
<path d="M86.0343 11.6154L85.3728 14.0186H86.8658C86.8806 14.0077 86.9398 13.7909 86.9398 13.7909H85.8717C85.8902 13.7909 86.4852 11.6118 86.4852 11.6118H86.0454H86.0343V11.6154Z" fill="#787F84"/>
<path d="M87.302 12.8153C87.1875 13.2345 87.2133 13.567 87.3833 13.7802C87.5312 13.9681 87.7825 14.0621 88.1298 14.0621C88.8653 14.0621 89.4159 13.6103 89.634 12.8225C89.7485 12.4069 89.719 12.0709 89.549 11.854C89.4011 11.6661 89.1535 11.5721 88.8098 11.5721C88.067 11.5721 87.5201 12.0275 87.302 12.8153ZM88.7507 11.8143C88.9318 11.8143 89.0648 11.8685 89.1461 11.9697C89.3051 12.172 89.2496 12.5334 89.1757 12.8008C88.9909 13.4694 88.6694 13.7946 88.1964 13.7946C88.0079 13.7946 87.8712 13.7404 87.7862 13.6356C87.6605 13.4766 87.6531 13.2092 87.764 12.8081C87.8896 12.3563 88.1631 11.8143 88.7507 11.8143Z" fill="#787F84"/>
<path d="M90.0591 12.7973C89.9556 13.1768 89.9888 13.4948 90.1662 13.7152C90.3473 13.9429 90.6578 14.0622 91.0717 14.0622C91.4856 14.0622 91.711 14.008 91.918 13.9285C91.9254 13.9176 92.2691 12.6636 92.2691 12.6636H91.3008C91.286 12.6745 91.2306 12.8768 91.2306 12.8768C91.2306 12.8768 91.7849 12.8768 91.7886 12.8768C91.7701 12.8804 91.5262 13.7622 91.5262 13.7622C91.4412 13.7875 91.3045 13.8056 91.1271 13.8056C90.8943 13.8056 90.7095 13.7297 90.5986 13.5851C90.4619 13.4117 90.436 13.1479 90.5247 12.8262C90.7058 12.1685 91.1234 11.8216 91.7332 11.8216C92.0436 11.8216 92.2062 11.8794 92.2728 11.9156C92.2912 11.9119 92.4723 11.7132 92.4723 11.7132C92.3614 11.6337 92.1508 11.5614 91.748 11.5614C91.0754 11.5722 90.2956 11.9517 90.0591 12.7973Z" fill="#787F84"/>
<path d="M94.5787 11.6154L93.6179 12.6923C93.6179 12.6923 93.6179 12.6923 93.6179 12.6887C93.6179 12.6417 93.2964 11.6118 93.2964 11.6118H92.8233C92.8085 11.6334 93.3074 12.9561 93.3074 12.9561C93.3074 12.9453 93.0155 14.0149 93.0155 14.0149H93.4553C93.4701 14.0041 93.762 12.9561 93.762 12.9561L95 11.6118H94.5824H94.5787V11.6154Z" fill="#787F84"/>
</svg>
