<svg width="147" height="27" viewBox="0 0 147 27" fill="none" xmlns="http://www.w3.org/2000/svg">
<path d="M99.0532 5.63518H95.0951L94.3867 8.61777H102.286C104.934 8.61777 106.503 6.51727 107.054 4.19466C107.605 1.87839 106.632 0 104.006 0H88.1966L85.4079 11.7273C85.1043 13.0092 85.779 14.0499 86.9147 14.0499H102.59L103.298 11.0673H92.0816C91.896 11.0673 91.7892 10.9023 91.8398 10.6929L93.6727 2.98259H100.093C100.689 2.98259 101.038 3.52834 100.88 4.19466C100.717 4.86733 100.217 5.63518 99.0532 5.63518Z" fill="white" fill-opacity="0.8"/>
<path d="M114.666 3.357C114.717 3.15393 114.902 2.98893 115.082 2.98259H126.023L126.732 0H109.286L106.52 11.6321C106.205 12.9647 106.947 14.0499 108.167 14.0499H123.392L124.101 11.0673H113.39C113.086 11.0673 112.895 10.7944 112.98 10.4644L114.666 3.357Z" fill="white" fill-opacity="0.8"/>
<path d="M140.815 0L139.612 5.08943H133.484L134.693 0H128.514L125.174 14.0562H131.359L132.781 8.07202H138.904L137.481 14.0562H143.666L147 0H140.815Z" fill="white" fill-opacity="0.8"/>
<path d="M21.3759 0.710743C20.8418 0.260182 20.049 0 18.9527 0H3.34525L0 14.0435H6.1845L8.82135 2.98893H14.7191C15.8211 2.98893 16.1528 3.80756 15.911 4.82925C15.6693 5.8446 14.7472 6.66957 13.8477 6.66957H9.85023L9.14182 9.65216H16.6757C19.3856 9.65216 21.4602 7.49454 22.0899 4.82925C22.5003 3.08412 22.3879 1.55475 21.3759 0.710743Z" fill="white" fill-opacity="0.8"/>
<path d="M41.5824 0H27.9034C25.5645 0 24.2095 1.46591 23.7148 3.53468L22.1181 10.3185C21.6233 12.3873 22.7253 14.0816 24.5581 14.0816H38.2371C40.6884 14.0816 41.9759 12.3873 42.4707 10.3185L44.0281 3.76313C44.5172 1.70071 44.0281 0 41.5824 0ZM37.7311 4.24542L36.3986 9.84888C36.2356 10.5406 35.6003 11.1054 34.9874 11.1054H29.2246C28.6118 11.1054 28.2463 10.5406 28.4094 9.84888L29.7419 4.24542C29.9049 3.55372 30.5402 2.98893 31.1531 2.98893H36.9159C37.7536 2.98893 37.8942 3.55372 37.7311 4.24542Z" fill="white" fill-opacity="0.8"/>
<path d="M86.7236 0H66.5003L65.7975 2.98893H72.9434L70.3065 14.088H76.5866L79.2179 2.98893H86.0152L86.7236 0Z" fill="white" fill-opacity="0.8"/>
<path d="M45.3886 4.201C44.8377 6.51727 46.0577 8.39566 48.1098 8.39566H56.5489C57.2123 8.39566 57.6059 9.00487 57.4259 9.74734C57.246 10.4962 56.7456 11.1054 55.9023 11.1054H44.461L43.7526 14.088H58.7415C61.5246 14.088 63.0482 12.1461 63.6161 9.74734C64.1839 7.34858 63.5992 5.40673 60.7993 5.40673H52.3546C51.7643 5.40673 51.4101 4.86733 51.5731 4.19466L51.8599 2.98259H64.4032L65.1116 0H46.3894L45.3886 4.201Z" fill="white" fill-opacity="0.8"/>
<path d="M0.978276 22.5273L0.967031 22.5336L0 26.5887H0.657806C0.680295 26.5696 1.09072 24.8626 1.09634 24.8435C1.09634 24.8626 1.2875 24.8753 1.2875 24.8753C2.75491 25.0022 3.46332 24.2978 3.62637 23.5934C3.70508 23.2571 3.67135 22.9778 3.52517 22.7621C3.31152 22.4511 2.88423 22.2925 2.24891 22.2925C1.77102 22.2925 1.30999 22.3813 0.978276 22.5273ZM2.14209 22.6859C2.53565 22.6859 2.78303 22.7748 2.90672 22.9525C3.00792 23.0984 3.01916 23.3015 2.95732 23.5807C2.79427 24.2597 2.26015 24.5643 1.36621 24.4882C1.36621 24.4882 1.16381 24.4691 1.15819 24.4691C1.1863 24.4691 1.59673 22.7494 1.59673 22.7494C1.59673 22.7621 2.14209 22.6859 2.14209 22.6859Z" fill="white" fill-opacity="0.8"/>
<path d="M3.96368 24.4755C3.78939 25.2116 3.82875 25.7955 4.08737 26.1762C4.31226 26.5062 4.69458 26.6712 5.22307 26.6712C6.3419 26.6712 7.17962 25.878 7.51134 24.4946C7.68563 23.7648 7.64065 23.1746 7.38203 22.7938C7.15713 22.4639 6.78044 22.2989 6.25757 22.2989C5.13311 22.2925 4.2954 23.0921 3.96368 24.4755ZM4.7002 25.9224C4.50904 25.6432 4.4978 25.1736 4.66647 24.4692C4.85762 23.6696 5.27367 22.7177 6.16761 22.7177C6.44311 22.7177 6.64551 22.8129 6.7692 22.9906C7.01095 23.3459 6.92662 23.9805 6.81418 24.4501C6.53306 25.6241 6.04392 26.1953 5.32427 26.1953C5.03754 26.2016 4.82951 26.1064 4.7002 25.9224Z" fill="white" fill-opacity="0.8"/>
<path d="M11.2951 22.3682L10.851 24.2085H9.04622L9.50725 22.3682H8.8382C8.81571 22.3872 7.81494 26.5882 7.81494 26.5882H8.48399C8.50648 26.5692 8.97875 24.6146 8.97875 24.6146H10.7835L10.2887 26.5882H10.9578C10.9803 26.5692 11.981 22.3682 11.981 22.3682H11.312H11.2951Z" fill="white" fill-opacity="0.8"/>
<path d="M14.1963 22.3682L11.5426 26.5882H12.1554C12.1723 26.5755 12.9482 25.3508 12.9482 25.3508H14.5899C14.5899 25.3508 14.5899 25.3381 14.5899 25.3508C14.5955 25.5031 14.7248 26.5882 14.7248 26.5882H15.4163C15.4388 26.5565 14.8091 22.3682 14.8091 22.3682H14.2076H14.1963ZM14.365 22.9012L14.5393 24.9763C14.5393 24.9763 13.1225 24.9763 13.1168 24.9763L14.365 22.9012Z" fill="white" fill-opacity="0.8"/>
<path d="M18.8908 26.5882H19.4756C19.498 26.5692 20.4988 22.3682 20.4988 22.3682H19.9366H19.9197L19.2169 25.3C19.2169 25.3 19.1382 25.7252 19.1326 25.7505L17.7158 22.3618H17.013C16.9905 22.3809 15.9897 26.5819 15.9897 26.5819H16.5576C16.5801 26.5628 17.311 23.5295 17.311 23.5295C17.311 23.5295 17.4066 23.0472 17.4122 23.0218L18.8908 26.5882Z" fill="white" fill-opacity="0.8"/>
<path d="M20.7181 24.4437C20.555 25.1101 20.6112 25.6685 20.8811 26.0556C21.151 26.4554 21.6289 26.6648 22.2529 26.6648C22.8826 26.6648 23.2256 26.5696 23.5404 26.43C23.5573 26.411 24.0746 24.2089 24.0746 24.2089H22.6015C22.579 24.228 22.4947 24.5834 22.4947 24.5834C22.4947 24.5834 23.338 24.5834 23.3437 24.5834C23.3099 24.5897 22.9445 26.1381 22.9445 26.1381C22.8152 26.1825 22.6071 26.2143 22.3373 26.2143C21.9831 26.2143 21.702 26.081 21.5333 25.8272C21.3253 25.5226 21.2859 25.0593 21.4208 24.4945C21.6963 23.3396 22.3316 22.7303 23.2593 22.7303C23.7316 22.7303 23.979 22.8319 24.0802 22.8953C24.1083 22.889 24.3838 22.54 24.3838 22.54C24.2151 22.4004 23.9003 22.2734 23.2818 22.2734C22.2586 22.2925 21.0723 22.9588 20.7181 24.4437Z" fill="white" fill-opacity="0.8"/>
<path d="M30.0341 22.3682L29.3145 25.3698C29.1796 25.9282 28.6679 26.1821 28.2519 26.1821C27.982 26.1821 27.7627 26.0869 27.6447 25.9155C27.5491 25.7759 27.5266 25.5919 27.5772 25.3888L28.2912 22.3745H27.6222C27.5997 22.3935 26.88 25.3825 26.88 25.3825C26.807 25.6998 26.8463 25.9853 27.0037 26.2075C27.2118 26.5121 27.6053 26.6771 28.1113 26.6771C29.0165 26.6771 29.7699 26.1503 29.9498 25.3952L30.6695 22.3745H30.0566H30.0341V22.3682Z" fill="white" fill-opacity="0.8"/>
<path d="M34.4645 22.3682L33.7617 25.3C33.7617 25.3 33.6774 25.7252 33.6718 25.7505C33.6662 25.6744 33.5312 25.3127 33.5312 25.3127L32.255 22.3618H31.5522C31.5297 22.3809 30.5289 26.5819 30.5289 26.5819H31.0912C31.1136 26.5628 31.8445 23.5295 31.8445 23.5295C31.8445 23.5295 31.9401 23.0472 31.9457 23.0218C31.9514 23.0979 32.1088 23.5231 32.1088 23.5231L33.4413 26.5819H34.026C34.0485 26.5628 35.0492 22.3618 35.0492 22.3618H34.487H34.4645V22.3682Z" fill="white" fill-opacity="0.8"/>
<path d="M35.9826 22.3682L34.9762 26.5882H35.6452C35.6677 26.5692 36.6685 22.3682 36.6685 22.3682H35.9995H35.9826Z" fill="white" fill-opacity="0.8"/>
<path d="M40.0644 22.3682L38.4396 25.319C38.4396 25.319 38.1641 25.8521 38.1584 25.8648C38.1866 25.8521 38.1753 25.3317 38.1753 25.3317L37.9842 22.3682H37.2757C37.2533 22.3999 37.6862 26.5882 37.6862 26.5882H38.2709C38.2878 26.5755 40.6997 22.3682 40.6997 22.3682H40.07H40.0644Z" fill="white" fill-opacity="0.8"/>
<path d="M41.3013 22.3682L40.2949 26.5882H42.5663C42.5888 26.5692 42.6788 26.1884 42.6788 26.1884H41.0596L41.4644 24.6083H42.8812C42.9037 24.5892 42.9936 24.2085 42.9936 24.2085H41.5318L41.9029 22.7743H43.4828C43.5052 22.7553 43.5952 22.3682 43.5952 22.3682H41.3238H41.3013Z" fill="white" fill-opacity="0.8"/>
<path d="M44.1798 22.5213L44.1686 22.5276L43.2015 26.589H43.865C43.8875 26.57 44.3541 24.6408 44.3541 24.6281C44.3541 24.6852 45.4504 26.589 45.4504 26.589H46.2038C46.2207 26.5509 45.0794 24.7169 45.0794 24.7169C45.9846 24.7296 46.6649 24.2854 46.8335 23.5747C46.9122 23.2447 46.8785 22.9718 46.7379 22.7624C46.5299 22.4514 46.0914 22.2991 45.4448 22.2991C44.9838 22.2928 44.5059 22.3816 44.1798 22.5213ZM44.8039 22.7497C44.9276 22.7053 45.1187 22.6799 45.3549 22.6799C45.7372 22.6799 45.9789 22.7624 46.097 22.9401C46.1982 23.086 46.2095 23.2955 46.142 23.5874C45.9958 24.1966 45.5235 24.5139 44.7702 24.5139C44.7702 24.5139 44.4384 24.4821 44.3935 24.4821C44.4047 24.4187 44.8039 22.7497 44.8039 22.7497Z" fill="white" fill-opacity="0.8"/>
<path d="M47.4014 23.4919C47.2777 24.0186 47.5364 24.4057 48.1773 24.6469C48.7227 24.85 48.9026 25.0657 48.8182 25.4211C48.7058 25.8907 48.2841 26.1889 47.7444 26.1889C47.4295 26.1889 47.1653 26.1255 46.9573 25.9986C46.9292 26.0049 46.6649 26.3984 46.6649 26.3984C46.9292 26.6014 47.2609 26.6712 47.7556 26.6712C48.6271 26.6712 49.3636 26.1509 49.5379 25.4084C49.6222 25.0467 49.6279 24.5327 48.7058 24.19C48.2616 24.025 48.003 23.8409 48.093 23.4538C48.1998 23.0033 48.5596 22.7368 49.0544 22.7368C49.403 22.7368 49.6503 22.8573 49.7628 22.9271C49.7909 22.9208 50.0327 22.5654 50.0327 22.5654C49.819 22.3814 49.4761 22.2989 49.0713 22.2989C48.2729 22.2925 47.5701 22.8002 47.4014 23.4919Z" fill="white" fill-opacity="0.8"/>
<path d="M51.0334 22.3682L50.027 26.5882H50.696C50.7185 26.5692 51.7193 22.3682 51.7193 22.3682H51.0502H51.0334Z" fill="white" fill-opacity="0.8"/>
<path d="M52.2253 22.3682L52.1241 22.7743H53.1137C53.0856 22.7743 52.1804 26.5882 52.1804 26.5882H52.8494C52.8719 26.5692 53.7827 22.7743 53.7827 22.7743H54.7273C54.7497 22.7553 54.8397 22.3682 54.8397 22.3682H52.2366H52.2253Z" fill="white" fill-opacity="0.8"/>
<path d="M57.8869 22.3682L56.4251 24.2593C56.4251 24.2593 56.4251 24.2593 56.4251 24.2529C56.4251 24.1641 55.9416 22.3618 55.9416 22.3618H55.2219C55.1994 22.3999 55.9584 24.7225 55.9584 24.7225C55.9584 24.7035 55.5143 26.5819 55.5143 26.5819H56.1833C56.2058 26.5628 56.65 24.7225 56.65 24.7225L58.5334 22.3618H57.8981H57.8869V22.3682Z" fill="white" fill-opacity="0.8"/>
<path d="M62.5703 22.2925C61.4459 22.2925 60.6081 23.0857 60.2764 24.4691C60.1021 25.2053 60.1415 25.7891 60.4001 26.1635C60.625 26.4935 61.0073 26.6585 61.5358 26.6585C62.6603 26.6585 63.4924 25.8652 63.8241 24.4818C63.9984 23.752 63.9534 23.1619 63.6948 22.7811C63.4699 22.4638 63.0932 22.2925 62.5703 22.2925ZM62.4804 22.7177C62.7558 22.7177 62.9582 22.8128 63.0819 22.9905C63.3237 23.3459 63.2394 23.9805 63.1269 24.4501C62.8458 25.6241 62.3567 26.1952 61.637 26.1952C61.3503 26.1952 61.1423 26.1 61.0129 25.916C60.8218 25.6368 60.8162 25.1672 60.9792 24.4628C61.1704 23.6695 61.5864 22.7177 62.4804 22.7177Z" fill="white" fill-opacity="0.8"/>
<path d="M64.9598 22.3682L63.9534 26.5882H64.6224L65.1172 24.6146H66.5284C66.5509 24.5956 66.6408 24.2148 66.6408 24.2148H65.1903L65.5557 22.7743H67.1243C67.1468 22.7553 67.2368 22.3682 67.2368 22.3682H64.971H64.9598Z" fill="white" fill-opacity="0.8"/>
<path d="M69.497 23.4919C69.3733 24.0186 69.632 24.4057 70.2729 24.6469C70.8183 24.85 70.9925 25.0657 70.9082 25.4211C70.7958 25.8907 70.3741 26.1889 69.8344 26.1889C69.5195 26.1889 69.2553 26.1255 69.0472 25.9986C69.0191 26.0049 68.7549 26.3984 68.7549 26.3984C69.0191 26.6014 69.3508 26.6712 69.8456 26.6712C70.7171 26.6712 71.4536 26.1509 71.6279 25.4084C71.7122 25.0467 71.7234 24.5327 70.7958 24.19C70.3516 24.025 70.093 23.8409 70.1829 23.4538C70.2898 23.0033 70.6496 22.7368 71.1443 22.7368C71.4929 22.7368 71.7403 22.8573 71.8528 22.9271C71.8809 22.9208 72.1226 22.5654 72.1226 22.5654C71.909 22.3814 71.5716 22.2989 71.1668 22.2989C70.3629 22.2925 69.6601 22.8002 69.497 23.4919Z" fill="white" fill-opacity="0.8"/>
<path d="M72.162 24.4755C72.0045 25.1418 72.0664 25.732 72.3362 26.1255C72.578 26.4808 72.9772 26.6649 73.4832 26.6649C73.8711 26.6649 74.2422 26.5824 74.5008 26.4301C74.5121 26.3983 74.4277 26.0493 74.4277 26.0493C74.2253 26.1128 74.0061 26.1953 73.6912 26.1953C73.3651 26.1953 73.129 26.081 72.9772 25.8653C72.7748 25.5734 72.741 25.0847 72.8816 24.4946C73.1459 23.4031 73.7643 22.7494 74.5346 22.7494C74.7763 22.7494 74.9843 22.8002 75.1586 22.9081C75.1867 22.9017 75.4229 22.5717 75.4229 22.5717C75.2092 22.375 74.9056 22.2989 74.5177 22.2989C73.4382 22.2925 72.4712 23.1936 72.162 24.4755Z" fill="white" fill-opacity="0.8"/>
<path d="M76.0975 22.3682L75.0911 26.5882H75.7601C75.7826 26.5692 76.7834 22.3682 76.7834 22.3682H76.1143H76.0975Z" fill="white" fill-opacity="0.8"/>
<path d="M77.7786 22.3682L76.7722 26.5882H79.0436C79.0661 26.5692 79.1561 26.1884 79.1561 26.1884H77.5368C77.565 26.1821 77.9417 24.6083 77.9417 24.6083H79.3585C79.3809 24.5892 79.4709 24.2085 79.4709 24.2085C79.4709 24.2085 78.0147 24.2085 78.0091 24.2085C78.0428 24.2085 78.3802 22.7743 78.3802 22.7743H79.96C79.9825 22.7553 80.0725 22.3682 80.0725 22.3682H77.8011H77.7786Z" fill="white" fill-opacity="0.8"/>
<path d="M81.4836 22.3682H80.7808C80.7583 22.3872 79.7576 26.5882 79.7576 26.5882H80.3198C80.3423 26.5692 81.0676 23.5358 81.0676 23.5358C81.0676 23.5358 81.1631 23.0535 81.1688 23.0281L82.6643 26.5882H83.249C83.2715 26.5692 84.2723 22.3682 84.2723 22.3682H83.71H83.6932L82.9004 25.7569L81.4836 22.3682Z" fill="white" fill-opacity="0.8"/>
<path d="M84.4298 24.4755C84.2724 25.1418 84.3342 25.732 84.6041 26.1255C84.8458 26.4808 85.245 26.6649 85.751 26.6649C86.139 26.6649 86.51 26.5824 86.7686 26.4301C86.7799 26.3983 86.6956 26.0493 86.6956 26.0493C86.4932 26.1128 86.2739 26.1953 85.959 26.1953C85.6329 26.1953 85.3968 26.081 85.245 25.8653C85.0426 25.5734 85.0089 25.0847 85.1494 24.4946C85.4137 23.4031 86.0265 22.7494 86.8024 22.7494C87.0441 22.7494 87.2522 22.8002 87.4265 22.9081C87.4546 22.9017 87.6907 22.5717 87.6907 22.5717C87.4771 22.375 87.1734 22.2989 86.7855 22.2989C85.706 22.2925 84.739 23.1936 84.4298 24.4755Z" fill="white" fill-opacity="0.8"/>
<path d="M88.5845 22.3682L87.5781 26.5882H89.8495L89.962 26.1884H88.3371L88.7419 24.6083H90.1587C90.1812 24.5892 90.2712 24.2085 90.2712 24.2085H88.815L89.1861 22.7743H90.7603C90.7828 22.7553 90.8728 22.3682 90.8728 22.3682H88.6014H88.5845Z" fill="white" fill-opacity="0.8"/>
<path d="M95.0221 22.3682L92.3684 26.5882H92.9812C92.9981 26.5755 93.774 25.3508 93.774 25.3508H95.4157C95.4157 25.3508 95.4157 25.3381 95.4157 25.3508C95.4213 25.5031 95.5506 26.5882 95.5506 26.5882H96.2422C96.2646 26.5565 95.635 22.3682 95.635 22.3682H95.0334H95.0221ZM95.1908 22.9012L95.3651 24.9763C95.3651 24.9763 93.9483 24.9763 93.9426 24.9763L95.1908 22.9012Z" fill="white" fill-opacity="0.8"/>
<path d="M98.4067 22.3682H97.7039C97.6814 22.3872 96.6807 26.5882 96.6807 26.5882H97.2429C97.2654 26.5692 97.9963 23.5358 97.9963 23.5358C97.9963 23.5358 98.0918 23.0535 98.0975 23.0281L99.593 26.5882H100.178C100.2 26.5692 101.201 22.3682 101.201 22.3682H100.639H100.622L99.9191 25.3C99.9191 25.3 99.8348 25.7252 99.8291 25.7505L98.4067 22.3682Z" fill="white" fill-opacity="0.8"/>
<path d="M102.28 22.5273L102.269 22.5336L101.342 26.4046C101.6 26.576 102.072 26.6648 102.59 26.6648C103.866 26.6648 104.788 25.8525 105.125 24.4437C105.283 23.7711 105.238 23.2444 104.985 22.87C104.721 22.4892 104.254 22.2925 103.596 22.2925C103.113 22.2925 102.629 22.3813 102.28 22.5273ZM102.905 22.7748C103.073 22.7303 103.248 22.705 103.501 22.705C103.905 22.705 104.192 22.8255 104.355 23.0603C104.546 23.3396 104.569 23.7965 104.417 24.4247C104.119 25.6622 103.579 26.2143 102.652 26.2143C102.427 26.2143 102.224 26.1889 102.095 26.1445C102.112 26.0873 102.905 22.7748 102.905 22.7748Z" fill="white" fill-opacity="0.8"/>
<path d="M108.409 22.3682L108.313 22.7743H109.303C109.269 22.7743 108.369 26.5882 108.369 26.5882H109.038C109.061 26.5692 109.972 22.7743 109.972 22.7743H110.916C110.939 22.7553 111.029 22.3682 111.029 22.3682H108.426H108.409Z" fill="white" fill-opacity="0.8"/>
<path d="M111.799 22.3682L110.792 26.5882H113.064C113.086 26.5692 113.176 26.1884 113.176 26.1884C113.176 26.1884 111.557 26.1884 111.551 26.1884C111.58 26.1821 111.956 24.6083 111.956 24.6083H113.373C113.396 24.5892 113.486 24.2085 113.486 24.2085C113.486 24.2085 112.029 24.2085 112.024 24.2085C112.057 24.2085 112.395 22.7743 112.395 22.7743H113.975C113.997 22.7553 114.087 22.3682 114.087 22.3682H111.816H111.799Z" fill="white" fill-opacity="0.8"/>
<path d="M114.093 24.4755C113.935 25.1418 113.997 25.732 114.267 26.1255C114.509 26.4808 114.908 26.6649 115.414 26.6649C115.802 26.6649 116.173 26.5824 116.432 26.4301C116.443 26.3983 116.359 26.0493 116.359 26.0493C116.156 26.1128 115.937 26.1953 115.622 26.1953C115.296 26.1953 115.06 26.081 114.908 25.8653C114.706 25.5734 114.672 25.0847 114.813 24.4946C115.077 23.4031 115.695 22.7494 116.465 22.7494C116.707 22.7494 116.915 22.8002 117.09 22.9081C117.118 22.9017 117.354 22.5717 117.354 22.5717C117.14 22.375 116.837 22.2989 116.443 22.2989C115.363 22.2925 114.396 23.1936 114.093 24.4755Z" fill="white" fill-opacity="0.8"/>
<path d="M120.66 22.3682L120.215 24.2085C120.215 24.2085 118.416 24.2085 118.411 24.2085C118.444 24.2021 118.872 22.3682 118.872 22.3682H118.203C118.18 22.3872 117.179 26.5882 117.179 26.5882H117.848C117.871 26.5692 118.343 24.6146 118.343 24.6146C118.343 24.6146 120.142 24.6146 120.148 24.6146C120.114 24.6146 119.653 26.5882 119.653 26.5882H120.322C120.345 26.5692 121.346 22.3682 121.346 22.3682H120.676H120.66Z" fill="white" fill-opacity="0.8"/>
<path d="M125.231 22.3682L124.528 25.3C124.528 25.3 124.443 25.7252 124.438 25.7505C124.432 25.6744 124.297 25.3127 124.297 25.3127L123.021 22.3618H122.318C122.296 22.3809 121.295 26.5819 121.295 26.5819H121.857C121.88 26.5628 122.611 23.5295 122.611 23.5295C122.611 23.5295 122.706 23.0472 122.712 23.0218C122.717 23.0979 122.875 23.5231 122.875 23.5231L124.207 26.5819H124.792C124.814 26.5628 125.815 22.3618 125.815 22.3618H125.253H125.231V22.3682Z" fill="white" fill-opacity="0.8"/>
<path d="M126.051 24.4755C125.877 25.2116 125.916 25.7954 126.175 26.1698C126.4 26.4998 126.782 26.6648 127.311 26.6648C128.43 26.6648 129.267 25.8716 129.599 24.4882C129.773 23.7584 129.728 23.1682 129.47 22.7875C129.245 22.4575 128.868 22.2925 128.345 22.2925C127.221 22.2925 126.383 23.0921 126.051 24.4755ZM128.255 22.7177C128.531 22.7177 128.733 22.8128 128.857 22.9905C129.099 23.3459 129.014 23.9805 128.902 24.4501C128.621 25.6241 128.132 26.1952 127.412 26.1952C127.125 26.1952 126.917 26.1 126.788 25.916C126.597 25.6368 126.585 25.1672 126.754 24.4628C126.951 23.6695 127.361 22.7177 128.255 22.7177Z" fill="white" fill-opacity="0.8"/>
<path d="M130.887 22.3682L129.88 26.5882H132.152C132.174 26.5692 132.264 26.1884 132.264 26.1884H130.639C130.667 26.1884 131.572 22.3618 131.572 22.3618H130.903H130.887V22.3682Z" fill="white" fill-opacity="0.8"/>
<path d="M132.815 24.4755C132.641 25.2116 132.68 25.7954 132.939 26.1698C133.164 26.4998 133.546 26.6648 134.074 26.6648C135.193 26.6648 136.031 25.8716 136.363 24.4882C136.537 23.7584 136.492 23.1682 136.233 22.7875C136.008 22.4575 135.632 22.2925 135.109 22.2925C133.979 22.2925 133.147 23.0921 132.815 24.4755ZM135.019 22.7177C135.294 22.7177 135.497 22.8128 135.621 22.9905C135.862 23.3459 135.778 23.9805 135.665 24.4501C135.384 25.6241 134.895 26.1952 134.176 26.1952C133.889 26.1952 133.681 26.1 133.552 25.916C133.36 25.6368 133.349 25.1672 133.518 24.4628C133.709 23.6695 134.125 22.7177 135.019 22.7177Z" fill="white" fill-opacity="0.8"/>
<path d="M137.009 24.4437C136.852 25.1101 136.902 25.6685 137.172 26.0556C137.448 26.4554 137.92 26.6648 138.55 26.6648C139.179 26.6648 139.522 26.5696 139.837 26.43C139.848 26.411 140.371 24.2089 140.371 24.2089H138.898C138.876 24.228 138.791 24.5834 138.791 24.5834C138.791 24.5834 139.635 24.5834 139.64 24.5834C139.612 24.5897 139.241 26.1381 139.241 26.1381C139.112 26.1825 138.904 26.2143 138.634 26.2143C138.28 26.2143 137.999 26.081 137.83 25.8272C137.622 25.5226 137.583 25.0593 137.718 24.4945C137.993 23.3396 138.628 22.7303 139.556 22.7303C140.028 22.7303 140.276 22.8319 140.377 22.8953C140.405 22.889 140.681 22.54 140.681 22.54C140.512 22.4004 140.191 22.2734 139.579 22.2734C138.555 22.2925 137.369 22.9588 137.009 24.4437Z" fill="white" fill-opacity="0.8"/>
<path d="M143.885 22.3682L142.424 24.2593C142.424 24.2593 142.424 24.2593 142.424 24.2529C142.424 24.1704 141.934 22.3618 141.934 22.3618H141.215C141.192 22.3999 141.951 24.7225 141.951 24.7225C141.951 24.7035 141.507 26.5819 141.507 26.5819H142.176C142.199 26.5628 142.643 24.7225 142.643 24.7225L144.526 22.3618H143.891H143.885V22.3682Z" fill="white" fill-opacity="0.8"/>
</svg>
