<svg width="304" height="41" viewBox="0 0 304 41" fill="none" xmlns="http://www.w3.org/2000/svg">
<path d="M232.048 15.7026C235.559 17.059 240.269 17.6218 243.861 18.7127C247.979 19.964 251.358 22.4017 251.343 28.1006C251.329 34.8889 246.383 40.5236 236.6 40.485C232.861 40.5147 227.823 39.0037 224.622 37.0844L223.816 27.5921L224.777 27.5957C226.017 34.2157 230.599 38.4192 237.246 38.4457C242.378 38.4666 246.476 36.1016 247.418 31.5795C248.703 25.4058 244.008 23.8875 242.812 23.4657C239.774 22.39 235.13 21.7928 231.016 20.4447C226.585 18.9915 223.594 16.2079 223.606 11.2537C223.622 4.23843 230.113 -0.0530216 238.45 0.00682747C243.566 0.0437816 247.725 1.71474 248.35 2.05536L249 10.3816H248.156C247.166 4.99721 242.931 1.91839 237.509 1.8971C231.581 1.87421 228.057 5.36435 227.582 8.69301C227.021 12.6487 229.328 14.6574 232.045 15.7066L232.048 15.7026ZM8.43916 15.7066C5.72112 14.6574 3.41523 12.6487 3.97678 8.69301C4.45102 5.36435 7.97747 1.87421 13.9036 1.8971C19.3254 1.91839 23.5604 4.99721 24.55 10.3816H25.3937L24.744 2.05536C24.1187 1.71434 19.9581 0.0429782 14.844 0.00682747C6.50724 -0.0510134 0.0158751 4.24044 3.95674e-05 11.2537C-0.0125476 16.2075 2.97915 18.9915 7.40943 20.4447C11.5238 21.7928 16.1673 22.39 19.2053 23.4657C20.4007 23.8875 25.0961 25.4058 23.8118 31.5795C22.8702 36.1012 18.772 38.4666 13.6397 38.4457C6.99203 38.4192 2.41069 34.2157 1.17065 27.5957L0.209555 27.5921L1.01635 37.0852C4.21553 39.0044 9.25366 40.5155 12.9945 40.4858C22.7776 40.526 27.7231 34.8885 27.7373 28.1014C27.7516 22.4025 24.3725 19.9647 20.2549 18.7136C16.663 17.6222 11.9538 17.0598 8.44158 15.7034L8.43916 15.7066ZM300.105 4.06334C300.105 1.44642 302.447 1.54162 304 1.54162V0.692482H291.405V1.54162C292.968 1.54162 295.311 1.44683 295.311 4.06334L295.301 36.5675C295.301 39.186 292.958 39.0892 291.405 39.0892V39.9379H303.997V39.0892C302.434 39.0892 300.091 39.186 300.091 36.5675L300.105 4.06334ZM189.957 6.48382L202.244 39.9371H205.888L217.928 5.5897C219.222 1.90112 220.945 1.53881 223.425 1.53881V0.691682H211.485V1.53881C212.432 1.49813 213.381 1.56239 214.313 1.7304C215.983 2.14172 216.077 3.56686 215.944 4.54211C215.768 5.43657 215.511 6.31351 215.176 7.16225L205.569 34.8777H205.455L195.895 8.84925C195.341 7.47657 194.913 6.05736 194.617 4.60878C194.414 3.24511 194.907 2.37348 195.519 1.99551C196.118 1.62838 196.701 1.54202 198.159 1.54202V0.694892H184.272V1.54202C187.5 1.54202 188.646 2.91453 189.957 6.48583L189.957 6.48382ZM91.1429 4.51762C91.7326 2.89003 91.1231 2.07143 90.212 1.74246C89.6011 1.57401 88.9661 1.50696 88.3327 1.54403V0.695294H96.0082L108.763 34.1502C110.142 37.5576 111.103 39.0936 114.513 39.0936V39.9407H100.627V39.0936C102.083 39.0936 102.666 39.0093 103.258 38.6401C103.867 38.2622 104.347 37.3905 104.127 36.0269C103.811 34.5768 103.364 33.1576 102.793 31.7864L100.816 26.5899H85.2979L82.8281 33.4674C82.4821 34.3152 82.2147 35.1923 82.0289 36.0879C81.8829 37.0632 81.9594 38.4867 83.6243 38.8996C84.5527 39.0662 85.4971 39.1299 86.4397 39.0896V39.9367H74.5043V39.0896C76.9844 39.0896 78.7271 38.7032 80.056 35.0407L91.1408 4.51361L91.1429 4.51762ZM100.101 24.7145L92.8887 5.75278H92.7733L85.9692 24.7145H100.101ZM126.239 22.0233V22.127L142.208 39.9359H150.677V39.0872C149.008 39.0872 146.495 38.1927 143.978 35.395L132.959 23.1392C139.995 22.3639 145.932 18.7208 145.932 11.3208C145.932 5.07315 140.894 0.690473 131.413 0.690473H116.524V1.53961C118.089 1.53961 120.432 1.44281 120.432 4.06133L120.419 36.5655C120.419 39.1824 118.076 39.0872 116.524 39.0872V39.9359H129.121V39.0872C127.556 39.0872 125.213 39.182 125.213 36.5655L125.223 2.46065H128.314C132.112 2.46065 141.267 2.27789 141.267 11.6955C141.267 21.4807 132.112 22.0233 128.314 22.0233H126.239ZM261.699 4.0609C261.699 1.44401 264.043 1.53921 265.595 1.53921V0.690071H252.999V1.53921C254.562 1.53921 256.905 1.44442 256.905 4.0609L256.895 36.5651C256.895 39.1836 254.552 39.0868 252.999 39.0868V39.9355H265.594V39.0868C264.031 39.0868 261.688 39.1836 261.688 36.5651L261.699 4.0609ZM282.599 35.9244L267.003 18.3617C267.003 18.3617 278.372 6.07449 279.584 4.78511C281.332 2.90851 283.095 1.53961 286.699 1.53961V0.690473H273.634V1.53961C274.007 1.53961 276.054 1.50426 276.734 1.74045C278.029 2.18872 278.207 3.48009 276.606 5.21452L262.645 20.2664V20.3174L279.898 39.9367H288.284V39.0896C286.399 39.0896 284.028 37.5323 282.599 35.9244ZM71.7645 0.691682V1.54082C72.7115 1.49957 73.6602 1.5633 74.5924 1.73081C76.2643 2.14212 76.4297 3.56726 76.298 4.54254C76.1304 5.43619 75.882 6.31309 75.5554 7.16263L65.9502 34.8781H65.8417L56.9986 8.84604C56.4785 7.47149 56.0871 6.05257 55.8296 4.6072C55.6629 3.24351 56.1761 2.36987 56.7995 1.9923C57.4233 1.61473 58.0216 1.54403 59.4412 1.54082V0.691682H45.6862V1.54082C48.9145 1.54082 50.0192 2.91132 51.2378 6.48138L54.5617 16.3139L48.241 34.8769H48.1326L39.1507 8.84566C38.6229 7.47153 38.2228 6.05274 37.9553 4.60677C37.7811 3.24311 38.2911 2.36947 38.9111 1.9919C39.5169 1.62436 40.1102 1.54041 41.565 1.54041V0.691281H27.7244V1.54041C30.952 1.54041 32.0657 2.91092 33.3041 6.481L44.8105 39.9359H48.5002L55.5423 19.214L62.5451 39.9367H66.2362L78.1884 5.58927C79.4637 1.91638 81.2228 1.54041 83.7047 1.54041V0.691281L71.7645 0.691682ZM168.83 0C181.794 0 186.939 10.8922 186.939 19.7599C186.939 30.2215 179.519 40.4914 167.972 40.4914C156.219 40.4914 149.68 31.3735 149.68 20.3697C149.68 8.46163 158.555 0 168.83 0H168.83ZM156.585 28.812C158.703 32.6516 161.713 35.5059 165.117 36.9202C168.166 38.1614 171.581 38.1918 174.651 37.0049C182.194 34.0193 182.424 24.4382 182.475 23.3958C182.868 15.6596 179.485 7.61008 173.258 4.26334C169.95 2.48836 164.853 1.74687 160.308 4.31958C157.059 6.15804 154.055 9.792 153.659 16.7313C153.478 20.9491 154.492 25.133 156.586 28.8112" fill="white"/>
</svg>
